<?xml version="1.0" standalone="no"?>
<!DOCTYPE svg PUBLIC "-//W3C//DTD SVG 20010904//EN"
 "http://www.w3.org/TR/2001/REC-SVG-20010904/DTD/svg10.dtd">
<svg version="1.0" xmlns="http://www.w3.org/2000/svg"
 width="1365.000000pt" height="737.000000pt" viewBox="0 0 1365.000000 737.000000"
 preserveAspectRatio="xMidYMid meet">

<g transform="translate(0.000000,737.000000) scale(0.100000,-0.100000)"
fill="#000000" stroke="none">
<path d="M86 7359 c2 -4 0 -10 -6 -14 -5 -3 -10 -15 -10 -26 0 -12 -7 -19 -20
-19 -19 0 -20 -7 -20 -91 0 -72 -3 -90 -13 -86 -8 3 -14 -1 -14 -9 0 -8 6 -14
14 -14 7 0 13 5 13 10 0 6 8 10 18 11 10 0 12 3 5 6 -9 3 -13 30 -13 84 0 64
3 79 15 79 12 0 15 -16 15 -85 0 -74 -2 -86 -20 -95 -11 -6 -20 -16 -20 -23 0
-8 3 -8 9 2 6 9 11 10 15 2 4 -6 4 -11 -1 -12 -4 0 -16 -2 -26 -4 -11 -2 -15
1 -10 8 3 7 2 9 -2 4 -5 -4 -10 -16 -12 -27 -4 -29 23 -25 52 6 24 25 25 34
25 142 0 104 2 118 21 138 21 23 21 23 1 21 -11 0 -19 -4 -16 -8z"/>
<path d="M2440 7343 c17 -22 20 -40 20 -137 0 -110 1 -113 28 -139 l28 -27
5569 0 c3062 0 5566 2 5563 5 -3 3 -323 6 -711 5 -667 0 -706 1 -701 18 5 15
4 15 -5 1 -16 -24 -247 -26 -273 -2 -13 12 -15 19 -7 24 12 7 47 -7 59 -23 8
-10 110 -6 104 4 -3 4 3 5 12 1 13 -5 15 -3 9 8 -7 11 -6 12 6 2 12 -10 20 -9
37 3 20 14 22 14 22 0 0 -9 -5 -16 -12 -16 -6 0 -8 -3 -5 -6 4 -4 13 -1 21 5
17 14 40 75 26 66 -6 -4 -10 -13 -10 -21 0 -8 -5 -14 -11 -14 -7 0 -8 12 -5
33 6 29 5 30 -4 7 -12 -26 -50 -67 -50 -52 0 5 9 17 19 26 11 10 23 32 27 50
9 43 15 51 26 35 8 -11 9 -11 5 1 -2 8 -10 14 -17 12 -8 -2 -11 4 -7 17 3 11
0 22 -7 25 -7 3 -7 5 2 5 6 1 12 9 12 19 0 13 -2 14 -9 4 -6 -11 -10 -10 -15
4 -4 10 -1 21 5 25 6 4 8 12 5 18 -10 16 -26 14 -20 -3 3 -7 -2 -16 -11 -20
-9 -3 -13 -2 -10 4 3 6 0 10 -7 10 -11 0 -11 2 0 9 7 4 -21 7 -65 6 -66 -2
-70 -2 -23 4 43 5 50 8 33 14 -28 10 -89 -1 -104 -19 -6 -8 -20 -14 -30 -14
-10 0 -21 -4 -24 -10 -3 -5 -1 -10 5 -10 7 0 5 -7 -4 -16 -22 -21 -21 -116 0
-149 16 -25 11 -50 -8 -39 -6 4 -8 2 -5 -4 4 -5 4 -17 1 -26 -6 -15 -407 -16
-4571 -16 -3874 0 -4564 2 -4560 14 3 7 1 18 -5 24 -6 6 -6 12 3 17 8 6 10 4
5 -6 -4 -8 2 -4 13 9 11 13 17 30 14 39 -4 11 -3 14 6 9 9 -6 10 0 5 20 -6 21
-4 25 7 19 11 -6 12 -5 2 6 -7 7 -13 18 -13 24 0 5 5 3 10 -5 8 -12 10 -9 10
13 0 16 -4 26 -9 22 -5 -3 -12 -1 -16 5 -3 5 0 10 7 11 7 0 3 4 -9 9 -13 5
-23 14 -23 20 0 17 -25 38 -54 46 -14 3 -24 10 -21 14 6 10 -80 -7 -107 -21
-27 -14 -65 -49 -54 -49 5 0 3 -7 -5 -16 -22 -27 -14 -110 16 -149 31 -42 46
-50 104 -59 31 -5 50 -2 66 8 14 9 27 11 36 5 11 -7 10 -9 -6 -9 -14 0 -16 -3
-7 -8 7 -5 -20 -9 -63 -10 -45 -2 -75 2 -75 8 0 5 -5 10 -11 10 -5 0 -7 -4 -4
-10 3 -5 2 -10 -4 -10 -5 0 -12 6 -15 13 -5 10 -7 10 -12 0 -8 -17 -26 -16
-50 3 -10 8 -13 12 -5 8 9 -5 12 -3 7 4 -4 7 -2 12 5 12 6 0 9 8 6 20 -3 11
-1 18 4 14 5 -3 9 0 9 5 0 14 -3 14 -34 0 -20 -9 -24 -17 -21 -43 4 -29 3 -30
-10 -12 -8 10 -12 22 -10 27 3 4 1 10 -5 14 -14 9 -12 89 2 103 10 10 10 15
-1 21 -9 6 -10 11 -2 15 6 4 11 12 11 17 0 6 -4 8 -9 5 -5 -4 -9 14 -8 40 2
44 0 47 -26 50 l-27 3 20 -26z m89 -249 c-6 -8 -15 -12 -18 -8 -3 4 0 9 7 11
6 3 9 10 6 15 -4 7 -2 8 5 4 9 -6 9 -11 0 -22z m9431 -40 c0 -2 -7 -4 -15 -4
-8 0 -15 4 -15 10 0 5 7 7 15 4 8 -4 15 -8 15 -10z"/>
<path d="M48 7335 c2 -14 6 -25 7 -25 1 0 5 11 7 25 3 16 1 25 -7 25 -8 0 -10
-9 -7 -25z"/>
<path d="M2768 7353 c6 -2 18 -2 25 0 6 3 1 5 -13 5 -14 0 -19 -2 -12 -5z"/>
<path d="M2570 7340 c-9 -6 -10 -10 -3 -10 6 0 15 5 18 10 8 12 4 12 -15 0z"/>
<path d="M4 7320 c0 -11 4 -20 8 -20 4 0 8 9 8 20 0 11 -4 20 -8 20 -4 0 -8
-9 -8 -20z"/>
<path d="M2861 7274 c0 -11 3 -14 6 -6 3 7 2 16 -1 19 -3 4 -6 -2 -5 -13z"/>
<path d="M12423 7273 c1 -17 4 -20 19 -12 12 6 18 6 18 0 0 -6 -15 -15 -32
-20 -22 -6 -26 -10 -12 -10 11 -1 26 -7 34 -13 12 -11 12 -10 1 5 -14 18 -11
20 34 19 18 -1 18 0 2 5 -12 3 -17 11 -14 22 3 11 -2 17 -14 17 -10 0 -15 -4
-13 -8 3 -4 1 -8 -5 -8 -5 0 -11 6 -14 13 -3 6 -4 2 -4 -10z"/>
<path d="M12486 7274 c-3 -7 2 -10 13 -7 10 2 23 -3 30 -11 8 -9 19 -16 25
-16 6 0 4 5 -4 10 -8 5 -10 10 -4 10 6 0 11 6 11 13 0 8 -6 14 -13 14 -7 0
-11 -4 -8 -9 3 -4 0 -8 -5 -8 -6 0 -11 4 -11 8 0 13 -29 10 -34 -4z"/>
<path d="M12895 7280 c-17 -8 -17 -9 7 -7 15 1 24 5 22 9 -3 4 -6 8 -7 7 -1 0
-11 -4 -22 -9z"/>
<path d="M13020 7280 c0 -5 5 -10 11 -10 5 0 7 5 4 10 -3 6 -8 10 -11 10 -2 0
-4 -4 -4 -10z"/>
<path d="M13420 7276 c7 -7 13 -7 20 0 6 6 3 10 -10 10 -13 0 -16 -4 -10 -10z"/>
<path d="M13480 7281 c0 -5 -8 -18 -17 -27 -16 -16 -16 -17 -1 -12 20 8 43
-16 32 -34 -5 -9 -2 -8 10 2 12 9 14 16 7 18 -9 3 -9 8 0 18 16 19 4 30 -16
14 -10 -8 -15 -9 -15 -1 0 6 5 11 10 11 6 0 10 5 10 10 0 6 -4 10 -10 10 -5 0
-10 -4 -10 -9z"/>
<path d="M12220 7255 c0 -14 3 -25 8 -25 4 0 7 11 7 25 0 14 -3 25 -7 25 -5 0
-8 -11 -8 -25z"/>
<path d="M443 7244 c-4 -11 2 -23 17 -34 15 -11 19 -19 11 -24 -6 -4 -15 -4
-21 -1 -5 3 -10 1 -10 -4 0 -18 40 -12 47 6 4 11 -1 22 -15 31 -27 17 -28 29
-4 35 16 4 16 5 -1 6 -10 0 -20 -6 -24 -15z"/>
<path d="M700 7215 c0 -25 5 -45 10 -45 6 0 10 20 10 45 0 25 -4 45 -10 45 -5
0 -10 -20 -10 -45z"/>
<path d="M840 7246 c0 -8 -10 -16 -22 -18 -17 -2 -23 -10 -23 -28 0 -20 6 -26
28 -28 26 -3 27 -2 27 42 0 25 -2 46 -5 46 -3 0 -5 -6 -5 -14z m-4 -37 c10
-17 -13 -36 -27 -22 -12 12 -4 33 11 33 5 0 12 -5 16 -11z"/>
<path d="M1050 7245 c0 -8 -8 -15 -19 -15 -19 0 -31 -25 -24 -47 3 -7 16 -13
29 -13 22 0 24 4 24 45 0 25 -2 45 -5 45 -3 0 -5 -7 -5 -15z m0 -45 c0 -11 -7
-20 -15 -20 -8 0 -15 9 -15 20 0 11 7 20 15 20 8 0 15 -9 15 -20z"/>
<path d="M1179 7213 c3 -27 7 -38 9 -26 2 12 11 24 20 26 15 4 15 5 0 6 -10 0
-18 7 -18 15 0 8 8 17 18 19 11 3 9 5 -8 6 -24 1 -25 -1 -21 -46z"/>
<path d="M12895 7250 c-3 -5 -3 -10 2 -10 4 0 2 -4 -6 -9 -9 -6 -10 -11 -2
-15 6 -4 11 -4 12 1 0 4 2 16 4 26 4 19 -1 22 -10 7z"/>
<path d="M12925 7251 c-3 -5 -2 -12 3 -15 5 -3 9 1 9 9 0 17 -3 19 -12 6z"/>
<path d="M13013 7243 c0 -7 6 -13 12 -13 6 0 12 6 12 13 0 8 -6 14 -12 14 -6
0 -12 -6 -12 -14z"/>
<path d="M13386 7248 c5 -7 2 -9 -7 -6 -10 4 -15 -1 -15 -13 0 -17 2 -17 18
-2 15 14 16 33 2 33 -3 0 -2 -5 2 -12z"/>
<path d="M1838 7238 c-6 -18 5 -61 17 -65 8 -2 10 24 6 70 -1 12 -18 8 -23 -5z"/>
<path d="M2270 7242 c0 -4 5 -13 12 -20 8 -8 8 -15 -2 -27 -17 -20 -5 -32 15
-15 12 10 18 10 30 0 20 -17 32 -5 15 15 -10 12 -10 18 0 30 17 20 5 32 -15
15 -12 -10 -19 -10 -27 -2 -14 14 -28 16 -28 4z"/>
<path d="M2520 7218 c0 -23 3 -29 9 -19 8 12 4 51 -5 51 -2 0 -4 -15 -4 -32z"/>
<path d="M12950 7246 c0 -2 7 -7 16 -10 8 -3 12 -2 9 4 -6 10 -25 14 -25 6z"/>
<path d="M2503 7205 c0 -22 2 -30 4 -17 2 12 2 30 0 40 -3 9 -5 -1 -4 -23z"/>
<path d="M2865 7230 c-3 -5 -1 -10 4 -10 6 0 11 5 11 10 0 6 -2 10 -4 10 -3 0
-8 -4 -11 -10z"/>
<path d="M500 7200 c0 -16 5 -30 10 -30 6 0 10 14 10 30 0 17 -4 30 -10 30 -5
0 -10 -13 -10 -30z"/>
<path d="M530 7201 c0 -17 5 -31 10 -31 6 0 10 11 10 25 0 34 20 32 21 -2 1
-26 1 -27 7 -5 4 13 12 23 17 23 6 0 13 -10 17 -23 6 -19 7 -18 5 7 -2 28 -5
30 -44 33 -42 3 -43 2 -43 -27z"/>
<path d="M632 7203 c2 -22 9 -29 31 -31 24 -3 27 0 27 27 0 17 -4 31 -10 31
-5 0 -10 -11 -10 -25 0 -14 -4 -25 -10 -25 -5 0 -10 11 -10 25 0 14 -5 25 -11
25 -6 0 -9 -12 -7 -27z"/>
<path d="M744 7222 c18 -8 18 -9 3 -15 -27 -10 -21 -37 9 -37 22 0 25 4 22 28
-2 21 -9 28 -28 29 -21 2 -22 1 -6 -5z m21 -32 c-3 -5 -10 -10 -16 -10 -5 0
-9 5 -9 10 0 6 7 10 16 10 8 0 12 -4 9 -10z"/>
<path d="M864 7216 c-10 -26 4 -48 28 -44 17 2 23 10 23 28 0 18 -6 26 -23 28
-13 2 -25 -3 -28 -12z m42 -7 c10 -17 -13 -36 -27 -22 -12 12 -4 33 11 33 5 0
12 -5 16 -11z"/>
<path d="M930 7200 c0 -16 5 -30 10 -30 6 0 10 11 10 24 0 13 6 27 13 29 6 3
2 6 -10 6 -19 1 -23 -4 -23 -29z"/>
<path d="M1084 7216 c-10 -25 3 -46 28 -45 l23 2 -22 4 c-29 6 -30 23 -2 23
12 0 19 5 17 13 -7 18 -37 21 -44 3z m33 -2 c-3 -3 -12 -4 -19 -1 -8 3 -5 6 6
6 11 1 17 -2 13 -5z"/>
<path d="M1230 7200 c0 -16 5 -30 10 -30 6 0 10 14 10 30 0 17 -4 30 -10 30
-5 0 -10 -13 -10 -30z"/>
<path d="M1260 7200 c0 -16 5 -30 10 -30 6 0 10 11 10 25 0 14 5 25 10 25 6 0
10 -11 10 -25 0 -14 5 -25 10 -25 6 0 10 6 10 14 0 30 -13 46 -36 46 -20 0
-24 -5 -24 -30z"/>
<path d="M1344 7222 c18 -8 18 -9 3 -15 -27 -10 -21 -37 9 -37 22 0 25 4 22
28 -2 21 -9 28 -28 29 -21 2 -22 1 -6 -5z m21 -32 c-3 -5 -10 -10 -16 -10 -5
0 -9 5 -9 10 0 6 7 10 16 10 8 0 12 -4 9 -10z"/>
<path d="M1390 7200 c0 -16 5 -30 10 -30 6 0 10 11 10 25 0 14 5 25 10 25 6 0
10 -11 10 -25 0 -14 5 -25 10 -25 6 0 10 5 10 11 0 8 4 8 15 -1 8 -6 20 -10
27 -7 8 4 7 6 -4 6 -11 1 -18 9 -18 21 0 12 7 20 18 21 12 0 13 2 3 6 -8 3
-20 -2 -27 -12 -12 -17 -14 -17 -20 -2 -3 10 -17 17 -30 17 -20 0 -24 -5 -24
-30z"/>
<path d="M1510 7200 c0 -16 5 -30 10 -30 6 0 10 14 10 30 0 17 -4 30 -10 30
-5 0 -10 -13 -10 -30z"/>
<path d="M1564 7222 c19 -8 19 -9 -2 -14 -31 -9 -29 -38 4 -38 22 0 25 4 22
27 -2 19 -9 29 -23 30 -19 3 -19 3 -1 -5z m11 -32 c-3 -5 -11 -10 -16 -10 -6
0 -7 5 -4 10 3 6 11 10 16 10 6 0 7 -4 4 -10z"/>
<path d="M1600 7200 c0 -17 5 -30 10 -30 6 0 10 11 10 25 0 34 20 32 21 -2 1
-28 1 -28 8 -4 9 35 29 37 34 4 4 -28 4 -28 6 3 1 31 0 31 -44 32 -43 1 -45 0
-45 -28z"/>
<path d="M1714 7216 c-10 -25 3 -46 28 -45 l23 2 -22 4 c-29 6 -30 23 -2 23
12 0 19 5 17 13 -7 18 -37 21 -44 3z m33 -2 c-3 -3 -12 -4 -19 -1 -8 3 -5 6 6
6 11 1 17 -2 13 -5z"/>
<path d="M1770 7200 c0 -16 5 -30 10 -30 6 0 10 11 10 25 0 14 5 25 10 25 6 0
10 -11 10 -25 0 -14 5 -25 10 -25 6 0 10 6 10 14 0 30 -13 46 -36 46 -20 0
-24 -5 -24 -30z"/>
<path d="M1881 7212 c-7 -13 -6 -23 1 -30 17 -17 45 -15 52 3 15 39 -33 64
-53 27z m39 -12 c0 -11 -7 -20 -15 -20 -8 0 -15 9 -15 20 0 11 7 20 15 20 8 0
15 -9 15 -20z"/>
<path d="M13466 7216 c3 -8 1 -24 -5 -35 -8 -13 -8 -22 -1 -26 6 -4 8 -10 6
-14 -3 -4 8 -7 23 -6 15 0 28 5 28 12 0 8 -9 10 -24 7 -18 -5 -22 -3 -17 9 3
9 14 13 27 11 22 -5 22 -4 0 7 -13 7 -23 18 -23 25 0 7 -4 16 -10 19 -5 3 -7
0 -4 -9z"/>
<path d="M12920 7210 c0 -5 5 -10 11 -10 5 0 7 5 4 10 -3 6 -8 10 -11 10 -2 0
-4 -4 -4 -10z"/>
<path d="M12995 7200 c-3 -5 -1 -10 4 -10 6 0 11 5 11 10 0 6 -2 10 -4 10 -3
0 -8 -4 -11 -10z"/>
<path d="M13027 7203 c-10 -9 -9 -23 1 -23 5 0 9 7 9 15 0 17 -1 18 -10 8z"/>
<path d="M13395 7200 c-3 -5 -1 -10 4 -10 6 0 11 5 11 10 0 6 -2 10 -4 10 -3
0 -8 -4 -11 -10z"/>
<path d="M13420 7206 c0 -2 7 -7 16 -10 8 -3 12 -2 9 4 -6 10 -25 14 -25 6z"/>
<path d="M12889 7200 c-5 -31 -7 -62 -2 -50 3 8 11 18 17 22 8 5 7 11 -2 20
-6 6 -12 10 -13 8z"/>
<path d="M12925 7180 c3 -5 8 -10 11 -10 2 0 4 5 4 10 0 6 -5 10 -11 10 -5 0
-7 -4 -4 -10z"/>
<path d="M13369 7185 c0 -5 -2 -18 -4 -27 -2 -10 2 -21 8 -25 7 -3 9 -3 5 2
-4 4 -4 13 2 19 5 7 5 17 0 26 -6 8 -10 11 -11 5z"/>
<path d="M13425 7183 c3 -3 -5 -17 -17 -30 -17 -19 -19 -23 -5 -17 9 3 17 11
17 16 0 6 8 4 18 -3 16 -13 16 -13 2 5 -8 11 -13 21 -12 23 2 3 1 7 -2 9 -3 2
-4 1 -1 -3z"/>
<path d="M12999 7172 c-1 -4 -1 -10 0 -14 0 -5 -3 -8 -9 -8 -5 0 -10 6 -10 13
0 9 -2 9 -8 1 -4 -7 -22 -10 -42 -8 -23 2 -30 1 -21 -5 8 -5 21 -7 29 -3 9 3
13 1 9 -5 -3 -5 0 -10 8 -10 8 0 15 5 15 10 0 5 7 4 15 -3 9 -7 15 -8 15 -2 0
5 7 9 16 8 25 -2 28 21 4 27 -11 3 -21 2 -21 -1z m26 -20 c-3 -3 -11 0 -18 7
-9 10 -8 11 6 5 10 -3 15 -9 12 -12z"/>
<path d="M2845 7140 c-3 -5 -1 -10 4 -10 6 0 11 5 11 10 0 6 -2 10 -4 10 -3 0
-8 -4 -11 -10z"/>
<path d="M2563 7105 c5 -11 3 -22 -5 -27 -8 -5 -9 -8 -2 -8 23 0 33 24 16 40
-14 13 -15 12 -9 -5z"/>
<path d="M13034 6936 c-33 -33 -45 -66 -24 -66 6 0 10 -18 10 -39 0 -31 6 -44
26 -60 36 -28 48 -26 61 8 9 24 8 31 -4 36 -18 6 -11 64 10 77 9 6 9 8 0 8
-18 0 -16 15 3 34 12 12 20 13 35 6 24 -13 25 -50 2 -51 -11 0 -13 -3 -5 -6
18 -7 15 -37 -8 -66 l-20 -26 22 -16 c22 -15 24 -14 45 10 45 51 42 108 -7
156 -42 43 -100 41 -146 -5z"/>
<path d="M1125 6899 c-26 -26 -35 -43 -27 -46 6 -3 12 -20 12 -39 l0 -34 60 0
60 0 0 34 c0 19 6 36 13 39 7 3 -2 20 -28 46 -21 22 -42 41 -45 41 -3 0 -24
-19 -45 -41z m67 -6 c11 -10 18 -30 18 -55 0 -38 0 -38 -40 -38 -39 0 -40 1
-40 37 0 20 7 45 17 55 20 22 22 22 45 1z"/>
<path d="M813 6918 c-27 -13 -40 -66 -24 -97 22 -40 100 -40 122 0 15 30 2 36
-21 11 -26 -27 -51 -28 -75 -2 -24 26 -13 68 20 76 32 8 50 -3 34 -22 -9 -12
-6 -14 20 -14 27 0 31 3 31 28 0 25 -3 27 -43 29 -23 1 -52 -3 -64 -9z"/>
<path d="M1520 6910 c-43 -43 -11 -120 50 -120 38 0 70 32 70 70 0 38 -32 70
-70 70 -17 0 -39 -9 -50 -20z m88 -12 c7 -7 12 -24 12 -38 0 -33 -17 -50 -50
-50 -33 0 -50 17 -50 52 0 41 59 65 88 36z"/>
<path d="M1560 6890 c0 -5 5 -10 10 -10 6 0 10 5 10 10 0 6 -4 10 -10 10 -5 0
-10 -4 -10 -10z"/>
<path d="M1560 6845 c0 -14 5 -25 10 -25 6 0 10 11 10 25 0 14 -4 25 -10 25
-5 0 -10 -11 -10 -25z"/>
<path d="M12375 6908 c-6 -13 -20 -24 -33 -26 -23 -3 -23 -5 -7 -22 10 -11 15
-28 13 -38 -5 -16 0 -19 38 -18 38 1 44 4 44 22 0 12 7 28 16 35 15 12 14 14
-7 19 -13 3 -28 16 -34 28 -12 28 -18 28 -30 0z m29 -30 c17 -17 8 -48 -14
-48 -21 0 -30 29 -15 47 13 15 13 15 29 1z"/>
<path d="M12760 6920 c0 -5 -7 -10 -15 -10 -24 0 -30 -29 -9 -45 18 -14 18
-16 2 -29 -22 -16 -23 -35 -3 -43 9 -3 22 2 30 13 15 19 15 19 30 0 16 -21 45
-15 45 9 0 8 5 15 10 15 6 0 10 9 10 20 0 11 -4 20 -9 20 -5 0 -11 9 -14 20
-3 11 -12 20 -21 20 -9 0 -16 5 -16 10 0 6 -9 10 -20 10 -11 0 -20 -4 -20 -10z"/>
<path d="M13420 6906 c0 -9 7 -16 16 -16 9 0 14 5 12 12 -6 18 -28 21 -28 4z"/>
<path d="M1754 6894 c-15 -13 -16 -15 -2 -10 14 4 18 -3 21 -37 3 -40 4 -39 5
11 1 28 1 52 -1 52 -2 0 -12 -7 -23 -16z"/>
<path d="M1815 6900 c-5 -9 -1 -10 13 -6 31 10 35 -9 7 -42 -14 -16 -25 -33
-25 -36 0 -3 17 -5 38 -5 30 2 32 3 10 6 -33 5 -35 14 -7 31 27 17 22 56 -8
60 -11 2 -24 -2 -28 -8z"/>
<path d="M1903 6903 c32 -5 31 -1 12 -46 -17 -41 -18 -47 -7 -47 4 0 12 15 18
33 6 17 14 40 19 50 6 15 2 17 -31 16 -31 -2 -33 -3 -11 -6z"/>
<path d="M1998 6885 c-15 -33 3 -75 32 -75 13 0 22 9 26 25 10 39 -3 75 -26
75 -12 0 -25 -10 -32 -25z m44 -15 c5 -34 -5 -56 -21 -46 -12 8 -15 58 -4 69
13 14 21 6 25 -23z"/>
<path d="M2107 6903 c-9 -8 -9 -56 -1 -77 3 -9 15 -16 25 -16 26 0 44 46 30
77 -10 22 -40 31 -54 16z m38 -43 c0 -18 -5 -35 -11 -37 -13 -4 -25 43 -17 64
10 25 28 7 28 -27z"/>
<path d="M2224 6894 c-12 -10 -14 -14 -4 -11 12 4 15 -3 12 -34 -3 -24 0 -39
7 -39 7 0 11 20 11 50 0 28 -1 50 -3 50 -2 0 -12 -7 -23 -16z"/>
<path d="M2320 6886 c0 -15 7 -26 20 -29 27 -7 25 -25 -2 -37 -23 -10 -23 -10
2 -7 33 3 42 46 11 54 -28 7 -27 30 2 36 19 4 18 4 -5 6 -23 1 -28 -3 -28 -23z"/>
<path d="M2390 6885 c0 -18 5 -25 20 -25 14 0 20 -7 20 -21 0 -16 -5 -20 -20
-16 -11 3 -20 1 -20 -4 0 -15 36 -10 50 6 15 18 6 45 -15 45 -21 0 -19 27 3
33 10 3 6 5 -10 6 -23 1 -28 -3 -28 -24z"/>
<path d="M2472 6898 c-13 -13 -16 -47 -6 -72 8 -21 41 -20 53 2 9 16 11 16 24
-2 7 -10 22 -17 33 -14 15 3 19 12 19 48 0 39 -3 45 -23 48 -17 3 -25 -2 -29
-18 l-6 -21 -14 21 c-16 23 -33 26 -51 8z m33 -38 c0 -18 -6 -35 -12 -37 -9
-3 -13 8 -13 37 0 29 4 40 13 38 6 -3 12 -20 12 -38z m80 20 c8 -26 -3 -62
-18 -57 -7 2 -13 14 -15 26 -7 45 20 71 33 31z"/>
<path d="M2647 6903 c-14 -23 -44 -113 -37 -113 8 0 53 111 46 117 -2 2 -6 1
-9 -4z"/>
<path d="M2830 6896 c0 -8 -12 -17 -26 -20 -20 -5 -25 -12 -22 -34 2 -22 9
-28 36 -30 l32 -3 0 50 c0 28 -4 51 -10 51 -5 0 -10 -6 -10 -14z m0 -51 c0
-16 -6 -25 -15 -25 -9 0 -15 9 -15 25 0 16 6 25 15 25 9 0 15 -9 15 -25z"/>
<path d="M3040 6910 c-1 -3 -3 -26 -5 -52 -3 -50 11 -68 17 -21 4 39 28 42 28
4 0 -17 5 -31 11 -31 6 0 9 14 7 33 -2 24 -8 33 -25 35 -12 2 -24 11 -26 20
-3 9 -6 15 -7 12z"/>
<path d="M3280 6860 c0 -27 5 -50 10 -50 6 0 10 23 10 50 0 28 -4 50 -10 50
-5 0 -10 -22 -10 -50z"/>
<path d="M3118 6889 c-2 -6 -2 -26 0 -45 3 -24 9 -34 21 -33 10 0 11 2 4 6
-15 5 -18 50 -4 55 5 2 3 8 -4 15 -9 9 -15 9 -17 2z"/>
<path d="M2280 6870 c0 -5 5 -10 10 -10 6 0 10 5 10 10 0 6 -4 10 -10 10 -5 0
-10 -4 -10 -10z"/>
<path d="M2670 6845 c0 -19 5 -35 10 -35 6 0 10 16 10 35 0 19 -4 35 -10 35
-5 0 -10 -16 -10 -35z"/>
<path d="M2709 6878 c0 -2 -1 -18 -2 -36 -2 -38 10 -43 15 -5 4 39 28 42 28 4
0 -17 5 -31 11 -31 6 0 9 14 7 33 -2 27 -8 33 -30 35 -16 2 -28 2 -29 0z"/>
<path d="M2864 6866 c-12 -31 1 -51 31 -53 20 -1 23 0 8 4 -31 6 -29 23 2 23
23 0 24 2 15 20 -12 23 -48 27 -56 6z m41 -6 c3 -5 -1 -10 -9 -10 -9 0 -16 5
-16 10 0 6 4 10 9 10 6 0 13 -4 16 -10z"/>
<path d="M2942 6861 c9 -15 9 -23 -1 -35 -16 -19 -1 -22 17 -4 9 9 12 9 12 0
0 -7 11 -12 25 -12 14 0 25 5 25 11 0 6 -6 9 -14 6 -18 -7 -42 18 -26 28 5 3
10 11 10 17 0 7 -5 6 -14 -1 -10 -8 -16 -9 -21 -1 -3 5 -10 10 -16 10 -5 0 -4
-9 3 -19z"/>
<path d="M3160 6845 c0 -19 5 -35 10 -35 6 0 10 14 10 30 0 17 5 30 10 30 6 0
10 -13 10 -30 0 -16 5 -30 10 -30 6 0 10 14 10 31 0 20 4 29 13 27 6 -3 12
-14 12 -25 0 -12 4 -25 8 -30 5 -4 7 8 5 27 -3 34 -4 35 -50 38 l-48 2 0 -35z"/>
<path d="M151 6865 c0 -5 4 -17 9 -25 6 -10 10 -11 10 -2 0 8 17 12 50 12 28
0 50 4 50 9 0 9 -38 7 -92 -4 -9 -1 -19 2 -22 9 -2 6 -5 7 -5 1z"/>
<path d="M470 6860 c0 -3 19 -6 43 -7 31 -1 38 1 25 8 -17 9 -68 9 -68 -1z"/>
<path d="M566 6854 c-4 -10 -1 -14 6 -12 15 5 23 28 10 28 -5 0 -13 -7 -16
-16z"/>
<path d="M13420 6855 c0 -8 7 -15 15 -15 8 0 15 7 15 15 0 8 -7 15 -15 15 -8
0 -15 -7 -15 -15z"/>
<path d="M1960 6820 c0 -5 5 -10 10 -10 6 0 10 5 10 10 0 6 -4 10 -10 10 -5 0
-10 -4 -10 -10z"/>
<path d="M2070 6820 c0 -5 5 -10 10 -10 6 0 10 5 10 10 0 6 -4 10 -10 10 -5 0
-10 -4 -10 -10z"/>
<path d="M2170 6820 c0 -5 5 -10 10 -10 6 0 10 5 10 10 0 6 -4 10 -10 10 -5 0
-10 -4 -10 -10z"/>
<path d="M2280 6820 c0 -5 5 -10 10 -10 6 0 10 5 10 10 0 6 -4 10 -10 10 -5 0
-10 -4 -10 -10z"/>
<path d="M13420 6805 c0 -8 7 -15 15 -15 8 0 15 7 15 15 0 8 -7 15 -15 15 -8
0 -15 -7 -15 -15z"/>
<path d="M18 6713 c12 -2 32 -2 45 0 12 2 2 4 -23 4 -25 0 -35 -2 -22 -4z"/>
<path d="M3407 6673 c1876 -2 4950 -2 6830 0 1880 1 345 2 -3412 2 -3757 0
-5295 -1 -3418 -2z"/>
<path d="M4690 6147 c-27 -14 -35 -36 -26 -72 5 -18 21 -29 67 -46 43 -16 59
-27 57 -38 -4 -22 -71 -27 -91 -7 -16 17 -47 22 -47 8 0 -20 33 -51 60 -57 69
-15 129 26 116 79 -5 19 -20 30 -67 47 -43 16 -59 27 -57 38 4 19 55 28 71 12
12 -12 47 -15 47 -3 -1 24 -45 52 -82 52 -13 0 -34 -6 -48 -13z"/>
<path d="M4880 6145 c0 -8 6 -15 14 -15 8 0 16 7 20 15 4 10 -1 15 -14 15 -11
0 -20 -7 -20 -15z"/>
<path d="M5440 6045 c0 -108 1 -115 20 -115 19 0 20 7 20 115 0 108 -1 115
-20 115 -19 0 -20 -7 -20 -115z"/>
<path d="M5820 6119 c0 -35 -3 -40 -17 -34 -42 17 -53 16 -77 -9 -35 -34 -35
-88 -1 -121 26 -27 46 -31 76 -15 13 7 19 7 19 0 0 -5 9 -10 20 -10 19 0 20 7
20 115 0 108 -1 115 -20 115 -17 0 -20 -7 -20 -41z m-8 -74 c23 -51 -20 -106
-57 -75 -18 15 -20 71 -3 88 20 20 48 14 60 -13z"/>
<path d="M6420 6120 c0 -37 -2 -40 -19 -30 -50 26 -91 -7 -91 -75 0 -69 41
-101 93 -74 16 9 22 9 25 0 2 -6 10 -11 18 -11 11 0 14 22 14 115 0 108 -1
115 -20 115 -17 0 -20 -7 -20 -40z m-6 -66 c17 -45 2 -94 -29 -94 -29 0 -37
12 -37 55 0 19 3 38 7 44 10 17 52 13 59 -5z"/>
<path d="M6780 6045 c0 -108 1 -115 20 -115 17 0 20 7 20 50 l0 50 45 0 c38 0
45 3 45 20 0 17 -7 20 -45 20 -41 0 -45 2 -45 25 0 24 3 25 55 25 48 0 55 2
55 20 0 18 -7 20 -75 20 l-75 0 0 -115z"/>
<path d="M6970 6145 c0 -8 9 -15 20 -15 11 0 20 7 20 15 0 8 -9 15 -20 15 -11
0 -20 -7 -20 -15z"/>
<path d="M7810 6145 c0 -8 9 -15 20 -15 11 0 20 7 20 15 0 8 -9 15 -20 15 -11
0 -20 -7 -20 -15z"/>
<path d="M8753 6143 c-7 -3 -13 -13 -13 -24 0 -10 -7 -19 -15 -19 -8 0 -15 -7
-15 -15 0 -8 7 -15 15 -15 12 0 15 -14 15 -65 0 -60 2 -65 24 -71 26 -6 46 1
46 17 0 5 -7 9 -15 9 -8 0 -15 3 -16 8 -1 4 -2 28 -4 55 -2 40 0 47 16 47 25
0 25 26 0 33 -11 2 -21 14 -23 24 -1 11 -9 18 -15 16z"/>
<path d="M4880 6015 c0 -74 2 -85 18 -85 15 0 17 9 14 85 -3 65 -7 85 -18 85
-11 0 -14 -18 -14 -85z"/>
<path d="M4960 6015 c0 -78 2 -85 20 -85 17 0 19 8 22 67 3 57 6 68 22 71 27
5 36 -15 36 -80 0 -49 3 -58 18 -58 14 0 17 7 14 43 -4 54 12 97 37 97 24 0
31 -19 31 -86 0 -40 4 -54 14 -54 14 0 25 77 18 128 -5 31 -42 48 -72 32 -17
-9 -28 -9 -50 0 -22 9 -33 9 -51 -1 -17 -9 -24 -9 -27 0 -2 6 -10 11 -18 11
-11 0 -14 -18 -14 -85z"/>
<path d="M5250 6025 c0 -71 2 -76 25 -87 19 -8 32 -8 52 1 19 9 29 9 31 2 2
-6 10 -11 18 -11 11 0 14 18 14 85 0 78 -2 85 -20 85 -17 0 -19 -8 -22 -67 -3
-65 -4 -68 -30 -71 -25 -3 -27 0 -33 52 -4 31 -5 62 -1 71 4 10 -1 15 -14 15
-18 0 -20 -7 -20 -75z"/>
<path d="M5553 6090 c-13 -5 -23 -14 -23 -19 0 -13 28 -22 35 -11 4 6 17 10
31 10 39 0 27 -32 -16 -43 -46 -12 -60 -24 -60 -53 0 -34 40 -52 77 -35 19 9
29 9 31 2 2 -6 11 -11 20 -11 15 0 16 10 12 74 -3 41 -8 77 -11 81 -12 11 -74
15 -96 5z m65 -102 c-4 -31 -58 -40 -58 -9 0 18 14 27 48 30 8 1 12 -8 10 -21z"/>
<path d="M5950 6093 c-35 -14 -50 -37 -50 -78 0 -67 58 -102 118 -71 68 35 52
139 -23 151 -16 2 -37 2 -45 -2z m58 -35 c17 -17 15 -73 -3 -88 -17 -14 -65
-5 -66 13 0 6 -2 19 -3 27 -2 8 0 25 5 38 9 24 47 30 67 10z"/>
<path d="M6100 6015 c0 -78 2 -85 20 -85 18 0 20 7 20 65 0 44 4 67 13 69 48
15 50 17 38 29 -9 9 -16 8 -33 -2 -16 -10 -23 -10 -26 -2 -2 6 -10 11 -18 11
-11 0 -14 -18 -14 -85z"/>
<path d="M6526 6079 c-21 -16 -26 -29 -26 -64 0 -35 5 -48 26 -64 30 -23 50
-26 90 -11 35 14 26 22 -28 24 -32 1 -44 5 -46 19 -3 14 5 17 53 17 52 0 56 2
51 20 -3 11 -8 28 -11 38 -5 19 -44 42 -69 42 -7 0 -25 -9 -40 -21z m72 -21
c20 -20 14 -28 -23 -28 -22 0 -35 5 -35 13 0 28 36 37 58 15z"/>
<path d="M6970 6015 c0 -78 2 -85 20 -85 18 0 20 7 20 85 0 78 -2 85 -20 85
-18 0 -20 -7 -20 -85z"/>
<path d="M7060 6015 c0 -78 2 -85 20 -85 18 0 20 7 20 58 0 60 11 82 41 82 22
0 29 -20 29 -87 0 -46 3 -54 17 -51 15 3 17 14 17 72 -2 92 -25 111 -98 81
-14 -6 -17 -5 -12 3 5 8 0 12 -13 12 -20 0 -21 -6 -21 -85z"/>
<path d="M7269 6082 l-22 -19 21 -5 c12 -4 22 -2 22 4 0 5 12 8 28 6 43 -5 34
-31 -15 -41 -26 -5 -47 -16 -53 -28 -22 -41 34 -84 78 -60 14 7 23 8 27 1 3
-5 13 -10 21 -10 22 0 10 140 -13 158 -24 18 -67 15 -94 -6z m81 -85 c0 -31
-51 -50 -66 -25 -8 13 22 38 48 38 10 0 18 -6 18 -13z"/>
<path d="M7430 6015 c0 -78 2 -85 20 -85 17 0 20 7 20 53 0 60 17 91 46 85 16
-3 19 -13 22 -71 3 -59 5 -67 22 -67 18 0 20 7 20 68 0 57 -4 72 -21 87 -17
17 -24 17 -52 7 -21 -8 -33 -9 -35 -2 -2 5 -12 10 -23 10 -17 0 -19 -8 -19
-85z"/>
<path d="M7645 6075 c-34 -33 -34 -87 1 -122 21 -21 32 -24 62 -19 44 7 73 37
45 47 -11 4 -21 1 -26 -7 -10 -17 -39 -18 -55 -2 -13 13 -16 56 -6 82 8 20 50
21 57 2 4 -9 14 -12 28 -9 22 6 22 6 -5 30 -35 30 -71 29 -101 -2z"/>
<path d="M7810 6015 c0 -78 2 -85 20 -85 18 0 20 7 20 85 0 78 -2 85 -20 85
-18 0 -20 -7 -20 -85z"/>
<path d="M7909 6082 l-22 -19 21 -5 c12 -4 22 -2 22 4 0 5 12 8 28 6 43 -5 34
-31 -15 -41 -26 -5 -47 -16 -53 -28 -22 -41 34 -84 78 -60 14 7 23 8 27 1 3
-5 13 -10 21 -10 22 0 10 140 -13 158 -24 18 -67 15 -94 -6z m81 -85 c0 -31
-51 -50 -66 -25 -8 13 22 38 48 38 10 0 18 -6 18 -13z"/>
<path d="M8070 6015 c0 -78 2 -85 20 -85 18 0 20 7 20 58 0 65 9 85 36 80 16
-3 19 -14 22 -71 3 -59 5 -67 22 -67 18 0 20 7 20 58 0 65 9 85 36 80 16 -3
19 -14 22 -71 3 -59 5 -67 22 -67 18 0 20 7 20 65 0 52 -4 69 -20 85 -23 23
-33 24 -60 10 -13 -7 -27 -6 -44 2 -19 8 -32 8 -51 0 -15 -7 -27 -8 -30 -2 -4
6 -13 10 -21 10 -11 0 -14 -18 -14 -85z"/>
<path d="M8376 6079 c-21 -16 -26 -29 -26 -64 0 -35 5 -48 26 -64 30 -23 50
-26 90 -11 35 14 26 22 -28 24 -32 1 -44 5 -46 19 -3 14 5 17 52 17 31 0 56 4
56 9 0 27 -25 70 -46 80 -35 16 -47 14 -78 -10z m72 -21 c20 -20 14 -28 -23
-28 -22 0 -35 5 -35 13 0 28 36 37 58 15z"/>
<path d="M8540 6015 c0 -69 3 -85 15 -85 11 0 15 12 15 44 0 65 15 98 43 94
20 -3 22 -9 25 -70 3 -60 5 -68 22 -68 18 0 20 7 20 69 0 92 -26 120 -83 90
-16 -9 -22 -9 -25 0 -2 6 -10 11 -18 11 -11 0 -14 -18 -14 -85z"/>
<path d="M8873 6088 c-29 -14 -47 -59 -38 -98 7 -32 46 -60 85 -60 31 0 80 53
80 85 0 34 -50 85 -82 84 -13 0 -33 -5 -45 -11z m79 -43 c24 -53 -26 -109 -68
-75 -17 15 -19 71 -2 88 21 21 57 14 70 -13z"/>
<path d="M3901 5508 c26 -68 36 -77 47 -47 5 13 17 41 25 62 9 20 12 37 7 37
-4 0 -16 -24 -26 -52 l-17 -53 -18 40 c-10 22 -19 46 -19 53 0 6 -4 12 -10 12
-5 0 0 -24 11 -52z"/>
<path d="M4083 5500 c0 -36 2 -50 4 -32 2 17 2 47 0 65 -2 17 -4 3 -4 -33z"/>
<path d="M5871 5498 c1 -35 4 -51 6 -36 3 22 10 27 36 30 28 3 32 7 32 33 0
27 -3 30 -37 33 l-38 3 1 -63z m67 30 c-2 -17 -11 -24 -30 -26 -24 -3 -28 0
-28 22 0 22 4 26 31 26 26 0 30 -3 27 -22z"/>
<path d="M6739 5542 c14 -27 14 -87 0 -115 -9 -16 -9 -19 0 -11 29 27 29 122
0 140 -8 4 -8 0 0 -14z"/>
<path d="M7880 5505 c0 -41 -4 -55 -14 -55 -8 0 -17 8 -19 18 -4 16 -5 16 -6
-1 -2 -26 29 -34 45 -12 16 22 19 105 4 105 -5 0 -10 -25 -10 -55z"/>
<path d="M6339 5523 c-11 -29 -4 -88 10 -98 5 -3 4 10 -1 29 -8 24 -7 43 0 65
13 38 5 41 -9 4z"/>
<path d="M3995 5520 c-4 -6 -4 -14 -1 -17 3 -4 6 -1 6 5 0 7 9 12 20 12 27 0
25 -17 -2 -26 -49 -15 -44 -54 6 -52 31 1 32 2 26 42 -4 32 -10 42 -27 44 -11
2 -24 -2 -28 -8z m45 -45 c0 -19 -24 -30 -41 -19 -9 5 -7 11 6 21 24 17 35 17
35 -2z"/>
<path d="M4120 5516 c-15 -19 -9 -56 12 -69 34 -22 66 41 36 71 -16 16 -33 15
-48 -2z m45 -31 c0 -23 -4 -30 -20 -30 -21 0 -31 25 -21 51 11 28 41 12 41
-21z"/>
<path d="M4201 5480 l1 -45 8 39 c4 21 13 42 21 47 10 6 7 8 -9 6 -19 -1 -22
-6 -21 -47z"/>
<path d="M5982 5483 l1 -48 4 42 c3 29 9 43 21 46 12 3 11 5 -5 6 -21 1 -23
-3 -21 -46z"/>
<path d="M6035 5520 c-4 -6 -4 -14 -1 -17 3 -4 6 -1 6 5 0 7 9 12 20 12 27 0
25 -17 -2 -26 -49 -15 -44 -54 6 -52 31 1 32 2 26 42 -4 32 -10 42 -27 44 -11
2 -24 -2 -28 -8z m45 -45 c0 -19 -24 -30 -41 -19 -9 5 -7 11 6 21 24 17 35 17
35 -2z"/>
<path d="M6133 5523 l28 -4 -25 -34 c-14 -19 -26 -36 -26 -39 0 -3 17 -5 38
-5 30 2 32 3 10 6 -16 2 -28 7 -28 9 0 3 12 21 26 40 l26 34 -38 -1 c-31 -2
-34 -3 -11 -6z"/>
<path d="M6199 5509 c-15 -29 3 -69 31 -69 28 0 46 40 31 69 -7 11 -20 21 -31
21 -11 0 -24 -10 -31 -21z m56 -8 c7 -24 -3 -51 -21 -51 -20 0 -34 31 -23 52
13 23 36 23 44 -1z"/>
<path d="M6389 5513 c-13 -16 -12 -17 3 -4 10 7 26 10 35 6 15 -5 12 -9 -15
-21 -45 -18 -41 -49 6 -50 33 -1 33 0 30 40 -2 33 -7 42 -24 44 -11 2 -27 -5
-35 -15z m47 -39 c-3 -9 -6 -18 -6 -20 0 -2 -9 -4 -20 -4 -25 0 -27 27 -2 33
31 8 34 7 28 -9z"/>
<path d="M6471 5480 l1 -45 8 38 c8 44 14 51 35 44 9 -4 16 -20 16 -44 1 -25
3 -30 6 -14 3 12 2 34 -1 47 -5 20 -12 24 -36 22 -29 -2 -30 -4 -29 -48z"/>
<path d="M6573 5523 c-7 -2 -13 -20 -13 -38 0 -25 5 -35 20 -40 26 -8 50 11
50 39 0 36 -25 53 -57 39z m42 -38 c0 -23 -4 -30 -20 -30 -21 0 -31 25 -21 51
11 28 41 12 41 -21z"/>
<path d="M6657 5523 c-14 -14 -6 -34 18 -43 33 -13 33 -34 -1 -27 -16 3 -22 1
-16 -5 15 -15 46 -5 50 15 2 11 -6 20 -22 27 -35 13 -34 34 0 26 17 -5 23 -3
19 4 -7 11 -38 14 -48 3z"/>
<path d="M7921 5500 c-1 -46 9 -61 42 -58 25 2 27 5 26 48 -1 25 -3 36 -6 25
-2 -11 -6 -30 -9 -42 -2 -13 -11 -23 -19 -23 -8 0 -17 10 -19 23 -3 12 -7 31
-9 42 -3 11 -5 4 -6 -15z"/>
<path d="M8012 5480 c1 -40 2 -41 5 -10 2 19 11 40 20 47 13 10 13 12 -6 10
-18 -1 -21 -7 -19 -47z"/>
<path d="M8072 5518 c-7 -7 -12 -21 -12 -33 0 -47 54 -62 70 -19 18 47 -25 85
-58 52z m43 -33 c0 -33 -28 -47 -39 -19 -10 25 3 56 22 52 11 -2 17 -13 17
-33z"/>
<path d="M8157 5523 c-14 -14 -6 -34 18 -43 33 -13 33 -34 -1 -27 -16 3 -22 1
-16 -5 15 -15 46 -5 50 15 2 11 -6 20 -22 27 -33 12 -34 34 -1 28 13 -3 22 -1
19 3 -6 11 -38 12 -47 2z"/>
<path d="M8285 5520 c-4 -6 -4 -14 -1 -17 3 -4 6 -1 6 5 0 7 9 12 20 12 27 0
25 -17 -2 -26 -49 -15 -44 -54 6 -52 31 1 32 2 26 42 -4 32 -10 42 -27 44 -11
2 -24 -2 -28 -8z m45 -45 c0 -19 -24 -30 -41 -19 -9 5 -7 11 6 21 24 17 35 17
35 -2z"/>
<path d="M8369 5509 c-15 -29 3 -69 31 -69 28 0 46 40 31 69 -7 11 -20 21 -31
21 -11 0 -24 -10 -31 -21z m56 -8 c7 -24 -3 -51 -21 -51 -20 0 -34 31 -23 52
13 23 36 23 44 -1z"/>
<path d="M8507 5523 c-4 -3 -7 -11 -7 -17 0 -6 5 -5 12 2 14 14 38 16 38 2 0
-5 -11 -13 -26 -16 -18 -5 -24 -12 -22 -28 2 -16 10 -21 36 -21 28 -1 32 2 32
26 0 42 -10 59 -34 59 -13 0 -26 -3 -29 -7z m40 -58 c-4 -8 -13 -15 -22 -15
-21 0 -19 28 3 32 22 5 26 2 19 -17z"/>
<path d="M8591 5480 l2 -45 6 40 c4 27 12 41 24 43 14 3 17 -4 17 -37 0 -23 5
-41 10 -41 12 0 13 60 2 78 -5 6 -20 11 -35 10 -25 -2 -27 -5 -26 -48z"/>
<path d="M8679 5509 c-15 -29 3 -69 31 -69 28 0 46 40 31 69 -7 11 -20 21 -31
21 -11 0 -24 -10 -31 -21z m56 -8 c7 -24 -3 -51 -21 -51 -20 0 -34 31 -23 52
13 23 36 23 44 -1z"/>
<path d="M3884 5387 c-3 -8 -4 -54 -2 -103 l3 -89 880 0 880 0 0 100 0 100
-878 3 c-724 2 -878 0 -883 -11z m1756 -92 l0 -95 -875 0 -875 0 0 95 0 95
875 0 875 0 0 -95z"/>
<path d="M3940 5341 c0 -5 9 -7 20 -4 11 3 20 7 20 9 0 2 -9 4 -20 4 -11 0
-20 -4 -20 -9z"/>
<path d="M4013 5335 c-3 -9 -3 -19 1 -22 3 -4 6 2 6 11 0 12 5 16 16 12 8 -3
12 -2 9 4 -9 15 -25 12 -32 -5z"/>
<path d="M4084 5336 c-11 -28 1 -81 18 -84 21 -4 33 35 24 73 -7 27 -33 34
-42 11z m31 -36 c0 -18 -6 -35 -12 -37 -9 -3 -13 8 -13 37 0 29 4 40 13 38 6
-3 12 -20 12 -38z"/>
<path d="M4161 5331 c-6 -11 -11 -28 -10 -38 0 -10 5 -3 10 15 10 34 24 42 32
17 4 -12 5 -11 3 1 -2 25 -23 28 -35 5z"/>
<path d="M4234 5336 c-11 -28 1 -81 18 -84 21 -4 33 35 24 73 -7 27 -33 34
-42 11z m31 -36 c0 -18 -6 -35 -12 -37 -9 -3 -13 8 -13 37 0 29 4 40 13 38 6
-3 12 -20 12 -38z"/>
<path d="M4304 5326 c-9 -39 3 -78 24 -74 13 3 17 14 17 48 0 34 -4 45 -17 48
-12 2 -19 -5 -24 -22z m36 -27 c0 -28 -4 -39 -12 -37 -24 8 -22 78 2 78 5 0
10 -18 10 -41z"/>
<path d="M3930 5304 c0 -8 6 -11 15 -8 8 4 23 0 33 -7 15 -13 16 -12 4 2 -17
23 -52 31 -52 13z"/>
<path d="M4052 5300 c0 -14 2 -19 5 -12 2 6 2 18 0 25 -3 6 -5 1 -5 -13z"/>
<path d="M4011 5278 c-1 -22 18 -33 32 -19 9 9 8 11 -5 6 -11 -4 -18 0 -21 12
-4 15 -5 16 -6 1z"/>
<path d="M4191 5276 c-1 -13 -6 -16 -18 -11 -15 5 -16 4 -5 -6 15 -16 37 2 29
23 -4 8 -6 6 -6 -6z"/>
<path d="M3937 5258 c2 -5 10 -8 18 -8 8 0 16 3 18 8 3 4 -5 7 -18 7 -13 0
-21 -3 -18 -7z"/>
<path d="M5864 5387 c-3 -8 -4 -54 -2 -103 l3 -89 880 0 880 0 0 100 0 100
-878 3 c-724 2 -878 0 -883 -11z m1756 -92 l0 -95 -875 0 -875 0 0 95 0 95
875 0 875 0 0 -95z"/>
<path d="M5906 5341 c-4 -5 2 -7 13 -4 28 7 36 -15 14 -40 -37 -40 -37 -47 -1
-46 23 1 26 3 11 6 l-23 4 22 29 c11 16 18 36 15 44 -7 17 -42 22 -51 7z"/>
<path d="M6000 5335 c-8 -9 -9 -15 -2 -15 6 0 13 -17 15 -37 3 -31 4 -29 5 15
2 57 1 60 -18 37z"/>
<path d="M7834 5387 c-3 -8 -4 -54 -2 -103 l3 -89 880 0 880 0 0 100 0 100
-878 3 c-724 2 -878 0 -883 -11z m1756 -92 l0 -95 -875 0 -875 0 0 95 0 95
875 0 875 0 0 -95z"/>
<path d="M7884 5326 c-9 -39 3 -78 24 -74 13 3 17 14 17 48 0 34 -4 45 -17 48
-12 2 -19 -5 -24 -22z m36 -27 c0 -28 -4 -39 -12 -37 -24 8 -22 78 2 78 5 0
10 -18 10 -41z"/>
<path d="M7994 5326 c-9 -39 3 -78 24 -74 13 3 17 14 17 48 0 34 -4 45 -17 48
-12 2 -19 -5 -24 -22z m36 -27 c0 -28 -4 -39 -12 -37 -24 8 -22 78 2 78 5 0
10 -18 10 -41z"/>
<path d="M8073 5335 c-3 -9 -3 -19 1 -22 3 -3 1 -12 -6 -20 -9 -11 -8 -18 5
-30 20 -21 47 -10 46 19 l-2 23 -4 -22 c-5 -24 -27 -31 -39 -12 -3 6 6 21 21
33 17 13 25 28 21 34 -10 17 -36 15 -43 -3z m29 -10 c0 -5 -5 -11 -11 -13 -6
-2 -11 4 -11 13 0 9 5 15 11 13 6 -2 11 -8 11 -13z"/>
<path d="M6673 5083 c81 -2 213 -2 295 0 81 1 14 3 -148 3 -162 0 -229 -2
-147 -3z"/>
<path d="M6514 4985 c0 -49 1 -71 3 -48 2 23 2 64 0 90 -2 26 -3 8 -3 -42z"/>
<path d="M7124 4985 c0 -49 1 -71 3 -48 2 23 2 64 0 90 -2 26 -3 8 -3 -42z"/>
<path d="M6617 5034 c-16 -16 -6 -42 18 -48 14 -4 25 -13 25 -21 0 -18 -31
-20 -50 -2 -12 10 -12 9 0 -6 18 -24 54 -18 58 10 3 17 -3 24 -22 29 -14 3
-26 12 -26 20 0 16 36 19 43 4 3 -6 4 -5 3 2 -3 14 -38 23 -49 12z"/>
<path d="M6913 4990 c0 -30 2 -43 4 -27 2 15 2 39 0 55 -2 15 -4 2 -4 -28z"/>
<path d="M6693 4975 c0 -22 2 -30 4 -17 2 12 2 30 0 40 -3 9 -5 -1 -4 -23z"/>
<path d="M6721 4970 c1 -34 2 -34 8 -6 9 43 31 45 32 4 l1 -33 7 29 c9 42 29
44 34 4 l4 -33 1 37 2 37 -45 -2 c-45 -1 -45 -1 -44 -37z"/>
<path d="M6831 4990 c-1 -34 11 -49 37 -47 18 1 22 7 22 34 0 18 -5 33 -10 33
-6 0 -10 -6 -9 -12 7 -54 -21 -64 -32 -12 -6 27 -7 27 -8 4z"/>
<path d="M6946 5001 c-3 -5 3 -7 14 -4 11 3 20 0 20 -6 0 -6 -9 -11 -20 -11
-13 0 -20 -7 -20 -20 0 -15 6 -19 25 -18 22 2 26 7 23 33 -3 30 -30 47 -42 26z
m29 -41 c-3 -5 -10 -10 -16 -10 -5 0 -9 5 -9 10 0 6 7 10 16 10 8 0 12 -4 9
-10z"/>
<path d="M7011 4973 c1 -27 3 -31 6 -13 2 14 12 31 21 38 14 11 13 12 -6 12
-19 0 -22 -5 -21 -37z"/>
<path d="M6673 4883 c81 -2 213 -2 295 0 81 1 14 3 -148 3 -162 0 -229 -2
-147 -3z"/>
<path d="M6200 4544 c0 -64 3 -85 13 -81 6 2 11 18 11 36 -3 44 29 42 58 -4
13 -19 31 -35 41 -35 19 0 18 5 -14 51 -17 24 -17 26 2 37 10 7 19 21 19 31 0
34 -28 51 -81 51 l-49 0 0 -86z m95 36 c0 -10 -12 -16 -35 -18 -31 -3 -36 0
-36 18 0 18 5 21 36 18 23 -2 35 -8 35 -18z"/>
<path d="M6780 4545 c0 -69 3 -85 15 -85 12 0 15 16 15 85 0 69 -3 85 -15 85
-12 0 -15 -16 -15 -85z"/>
<path d="M7140 4605 c0 -21 -4 -24 -22 -20 -35 9 -62 -17 -62 -59 0 -47 14
-60 69 -61 l45 -2 0 84 c0 67 -3 83 -15 83 -9 0 -15 -9 -15 -25z m-5 -80 c0
-23 -5 -31 -22 -33 -17 -3 -24 3 -29 22 -8 32 3 48 29 44 17 -2 22 -10 22 -33z"/>
<path d="M6851 4603 c-12 -24 -2 -120 15 -134 15 -12 44 -5 44 11 0 5 -7 10
-15 10 -10 0 -15 11 -15 35 0 19 5 35 10 35 6 0 10 7 10 15 0 8 -4 15 -10 15
-5 0 -10 7 -10 15 0 20 -17 19 -29 -2z"/>
<path d="M6380 4570 c-27 -27 -26 -75 2 -94 30 -21 51 -20 73 4 18 19 17 20
-20 17 -23 -1 -40 3 -42 11 -3 8 8 12 36 12 30 0 41 4 41 15 0 19 -36 55 -55
55 -8 0 -24 -9 -35 -20z m60 -20 c0 -5 -11 -10 -25 -10 -14 0 -25 5 -25 10 0
6 11 10 25 10 14 0 25 -4 25 -10z"/>
<path d="M6506 4574 c-9 -8 -16 -19 -16 -24 0 -13 42 -40 62 -40 10 0 18 -7
18 -15 0 -9 -9 -15 -25 -15 -14 0 -25 5 -25 10 0 6 -7 10 -17 10 -14 0 -14 -2
2 -20 30 -34 95 -19 95 21 0 15 -11 25 -40 36 -22 9 -40 20 -40 25 0 12 34 10
48 -4 17 -17 28 -2 12 17 -16 20 -54 19 -74 -1z"/>
<path d="M6630 4553 c0 -78 25 -107 70 -83 13 7 20 7 20 0 0 -5 5 -10 10 -10
6 0 10 28 10 65 0 50 -3 65 -14 65 -11 0 -16 -14 -18 -47 -3 -40 -6 -48 -23
-48 -17 0 -20 8 -23 48 -2 33 -7 47 -18 47 -10 0 -14 -11 -14 -37z"/>
<path d="M6940 4575 c-7 -9 -9 -19 -5 -23 4 -4 10 -1 12 6 6 17 43 15 43 -2 0
-8 -14 -19 -30 -25 -63 -21 -46 -70 23 -69 l42 1 -4 51 c-1 28 -8 57 -13 64
-14 17 -53 15 -68 -3z m50 -75 c0 -13 -7 -20 -20 -20 -22 0 -28 25 -7 33 22
10 27 7 27 -13z"/>
<path d="M7227 4578 c-28 -22 -32 -73 -8 -97 41 -41 101 -14 101 44 0 52 -53
82 -93 53z m64 -34 c17 -21 0 -49 -32 -49 -24 0 -36 23 -25 51 7 19 40 18 57
-2z"/>
<path d="M7366 4577 c-26 -19 -16 -49 21 -61 41 -14 50 -24 29 -32 -10 -4 -28
-1 -42 6 -34 19 -41 5 -9 -16 34 -22 78 -9 83 24 3 19 -4 26 -37 39 -23 9 -41
20 -41 25 0 12 34 10 47 -3 6 -6 17 -9 23 -7 9 3 8 9 -4 21 -21 20 -46 22 -70
4z"/>
<path d="M3901 4058 c1 -35 4 -51 6 -36 3 20 11 28 30 30 58 7 51 68 -8 68
l-29 0 1 -62z m64 27 c0 -14 -8 -21 -27 -23 -24 -3 -28 0 -28 23 0 23 4 26 28
23 19 -2 27 -9 27 -23z"/>
<path d="M4370 4101 c-15 -29 -12 -94 6 -117 15 -18 15 -18 5 3 -14 28 -14 89
-1 114 6 10 8 19 6 19 -3 0 -10 -9 -16 -19z"/>
<path d="M4889 4102 c14 -27 14 -87 0 -115 -9 -16 -9 -19 0 -11 29 27 29 122
0 140 -8 4 -8 0 0 -14z"/>
<path d="M5912 4068 c-2 -42 -6 -58 -16 -58 -8 0 -17 7 -20 16 -4 9 -9 15 -11
12 -11 -11 8 -38 26 -38 25 0 31 17 26 76 l-3 49 -2 -57z"/>
<path d="M6686 4112 c-3 -5 1 -9 9 -9 8 0 15 4 15 9 0 4 -4 8 -9 8 -6 0 -12
-4 -15 -8z"/>
<path d="M7880 4065 c0 -41 -4 -55 -14 -55 -8 0 -17 8 -19 18 -4 16 -5 16 -6
-1 -2 -26 29 -34 45 -12 16 22 19 105 4 105 -5 0 -10 -25 -10 -55z"/>
<path d="M8763 4060 c0 -36 2 -50 4 -32 2 17 2 47 0 65 -2 17 -4 3 -4 -33z"/>
<path d="M8940 4100 c0 -13 -5 -18 -15 -14 -35 14 -61 -46 -33 -74 7 -7 22
-12 35 -12 21 0 23 4 23 60 0 33 -2 60 -5 60 -3 0 -5 -9 -5 -20z m-5 -39 c8
-26 -5 -53 -24 -49 -29 6 -27 68 3 68 8 0 17 -8 21 -19z"/>
<path d="M4002 4040 c1 -40 2 -41 5 -10 2 19 11 40 20 47 13 10 13 12 -6 10
-18 -1 -21 -7 -19 -47z"/>
<path d="M4059 4073 c-13 -16 -12 -17 3 -4 10 7 26 10 35 6 15 -5 12 -9 -15
-21 -45 -18 -41 -49 6 -50 33 -1 33 0 30 40 -2 33 -7 42 -24 44 -11 2 -27 -5
-35 -15z m47 -39 c-3 -9 -6 -18 -6 -20 0 -2 -9 -4 -20 -4 -25 0 -27 27 -2 33
31 8 34 7 28 -9z"/>
<path d="M4158 4083 c28 -5 28 -7 -4 -49 l-26 -34 38 1 c31 2 34 3 11 6 l-28
4 25 34 c14 19 26 36 26 39 0 3 -15 5 -32 5 -24 -1 -27 -3 -10 -6z"/>
<path d="M4230 4076 c-15 -19 -9 -56 12 -69 34 -22 66 41 36 71 -16 16 -33 15
-48 -2z m45 -31 c0 -23 -4 -30 -20 -30 -21 0 -31 25 -21 51 11 28 41 12 41
-21z"/>
<path d="M4411 4041 l2 -46 6 40 c4 26 11 40 21 40 10 0 17 -14 21 -40 l5 -40
5 40 c3 27 9 40 19 40 10 0 17 -14 21 -40 l7 -40 -2 45 -1 45 -52 1 -53 1 1
-46z"/>
<path d="M4550 4076 c-15 -20 -9 -56 12 -70 14 -8 21 -6 35 9 16 17 17 18 1 6
-19 -14 -48 -9 -48 9 0 5 14 10 30 10 31 0 39 17 18 38 -16 16 -33 15 -48 -2z
m48 -13 c2 -8 -6 -13 -22 -13 -25 0 -33 10 -19 24 10 10 36 3 41 -11z"/>
<path d="M4637 4083 c-14 -14 -6 -34 18 -43 33 -13 33 -34 -1 -27 -16 3 -22 1
-16 -5 15 -15 46 -5 50 15 2 11 -6 20 -22 27 -35 13 -34 34 0 26 17 -5 23 -3
19 4 -7 11 -38 14 -48 3z"/>
<path d="M4720 4076 c-15 -20 -9 -56 12 -70 14 -8 21 -6 35 9 16 17 17 18 1 6
-19 -14 -48 -9 -48 9 0 5 14 10 30 10 31 0 39 17 18 38 -16 16 -33 15 -48 -2z
m48 -13 c2 -8 -6 -13 -22 -13 -25 0 -33 10 -19 24 10 10 36 3 41 -11z"/>
<path d="M4807 4083 c-14 -14 -6 -34 18 -43 33 -13 33 -34 -1 -27 -16 3 -22 1
-16 -5 15 -15 46 -5 50 15 2 11 -6 20 -22 27 -35 13 -34 34 0 26 17 -5 23 -3
19 4 -7 11 -38 14 -48 3z"/>
<path d="M5954 4048 c1 -40 3 -43 29 -44 26 -1 27 1 26 45 l-2 46 -6 -40 c-9
-57 -38 -61 -44 -6 l-4 41 1 -42z"/>
<path d="M6042 4040 c1 -40 2 -41 5 -10 2 19 11 40 20 47 13 10 13 12 -6 10
-18 -1 -21 -7 -19 -47z"/>
<path d="M6103 4083 c-7 -2 -13 -20 -13 -38 0 -25 5 -35 20 -40 26 -8 50 11
50 39 0 36 -25 53 -57 39z m42 -38 c0 -23 -4 -30 -20 -30 -21 0 -31 25 -21 51
11 28 41 12 41 -21z"/>
<path d="M6187 4083 c-14 -14 -6 -34 18 -43 33 -13 33 -34 -1 -27 -16 3 -22 1
-16 -5 15 -15 46 -5 50 15 2 11 -6 20 -22 27 -35 13 -34 34 0 26 17 -5 23 -3
19 4 -7 11 -38 14 -48 3z"/>
<path d="M6309 4073 c-13 -16 -12 -17 3 -4 10 7 26 10 35 6 15 -5 12 -9 -15
-21 -45 -18 -41 -49 6 -50 33 -1 33 0 30 40 -2 33 -7 42 -24 44 -11 2 -27 -5
-35 -15z m47 -39 c-3 -9 -6 -18 -6 -20 0 -2 -9 -4 -20 -4 -25 0 -27 27 -2 33
31 8 34 7 28 -9z"/>
<path d="M6400 4076 c-15 -19 -9 -56 12 -69 34 -22 66 41 36 71 -16 16 -33 15
-48 -2z m45 -31 c0 -23 -4 -30 -20 -30 -21 0 -31 25 -21 51 11 28 41 12 41
-21z"/>
<path d="M6533 4045 c0 -27 2 -38 4 -22 2 15 2 37 0 50 -2 12 -4 0 -4 -28z"/>
<path d="M6559 4082 c8 -6 17 -27 22 -48 l7 -39 -1 45 c-2 36 -6 45 -22 48
-15 2 -17 1 -6 -6z"/>
<path d="M6608 4083 c7 -2 12 -22 12 -44 0 -21 5 -39 10 -39 11 0 14 49 4 74
-3 9 -14 16 -23 15 -10 0 -11 -2 -3 -6z"/>
<path d="M6670 4076 c-15 -20 -9 -56 12 -70 14 -8 21 -6 35 9 16 17 17 18 1 6
-19 -14 -48 -9 -48 9 0 5 14 10 30 10 31 0 39 17 18 38 -16 16 -33 15 -48 -2z
m48 -13 c2 -8 -6 -13 -22 -13 -25 0 -33 10 -19 24 10 10 36 3 41 -11z"/>
<path d="M6751 4076 c-12 -15 -2 -27 32 -39 27 -10 9 -30 -20 -22 -16 4 -22 2
-18 -5 10 -16 52 -12 59 6 9 23 8 24 -19 34 -30 11 -34 35 -5 27 11 -3 18 -1
14 4 -8 13 -30 11 -43 -5z"/>
<path d="M7921 4060 c-1 -46 9 -61 42 -58 25 2 27 5 26 48 -1 25 -3 36 -6 25
-2 -11 -6 -30 -9 -42 -2 -13 -11 -23 -19 -23 -8 0 -17 10 -19 23 -3 12 -7 31
-9 42 -3 11 -5 4 -6 -15z"/>
<path d="M8012 4040 c1 -40 2 -41 5 -10 2 19 11 40 20 47 13 10 13 12 -6 10
-18 -1 -21 -7 -19 -47z"/>
<path d="M8072 4078 c-7 -7 -12 -21 -12 -33 0 -47 54 -62 70 -19 18 47 -25 85
-58 52z m43 -33 c0 -33 -28 -47 -39 -19 -10 25 3 56 22 52 11 -2 17 -13 17
-33z"/>
<path d="M8157 4083 c-14 -14 -6 -34 18 -43 33 -13 33 -34 -1 -27 -16 3 -22 1
-16 -5 15 -15 46 -5 50 15 2 11 -6 20 -22 27 -33 12 -34 34 -1 28 13 -3 22 -1
19 3 -6 11 -38 12 -47 2z"/>
<path d="M8285 4080 c-4 -6 -4 -14 -1 -17 3 -4 6 -1 6 5 0 7 9 12 20 12 27 0
25 -17 -2 -26 -49 -15 -44 -54 6 -52 31 1 32 2 26 42 -4 32 -10 42 -27 44 -11
2 -24 -2 -28 -8z m45 -45 c0 -19 -24 -30 -41 -19 -9 5 -7 11 6 21 24 17 35 17
35 -2z"/>
<path d="M8369 4069 c-8 -16 -8 -28 0 -45 10 -23 44 -33 55 -15 3 4 -5 6 -18
4 -18 -4 -25 0 -28 14 -8 35 3 55 28 50 13 -2 21 0 18 4 -10 17 -43 9 -55 -12z"/>
<path d="M8454 4048 c1 -40 3 -43 29 -44 26 -1 27 1 26 45 l-2 46 -6 -40 c-9
-57 -38 -61 -44 -6 l-4 41 1 -42z"/>
<path d="M8543 4045 c0 -27 2 -38 4 -22 2 15 2 37 0 50 -2 12 -4 0 -4 -28z"/>
<path d="M8569 4082 c8 -6 17 -27 22 -48 l7 -39 -1 45 c-2 36 -6 45 -22 48
-15 2 -17 1 -6 -6z"/>
<path d="M8618 4083 c7 -2 12 -22 12 -44 0 -21 5 -39 10 -39 11 0 14 49 4 74
-3 9 -14 16 -23 15 -10 0 -11 -2 -3 -6z"/>
<path d="M8674 4050 c1 -36 5 -45 21 -48 18 -4 19 -3 3 10 -9 7 -19 29 -21 48
-3 26 -4 24 -3 -10z"/>
<path d="M8720 4051 c0 -22 5 -43 10 -46 6 -4 10 12 10 39 0 25 -4 46 -10 46
-5 0 -10 -18 -10 -39z"/>
<path d="M8799 4073 c-13 -16 -12 -17 3 -4 10 7 26 10 35 6 15 -5 12 -9 -15
-21 -45 -18 -41 -49 6 -50 33 -1 33 0 30 40 -2 33 -7 42 -24 44 -11 2 -27 -5
-35 -15z m47 -39 c-3 -9 -6 -18 -6 -20 0 -2 -9 -4 -20 -4 -25 0 -27 27 -2 33
31 8 34 7 28 -9z"/>
<path d="M8980 4076 c-15 -19 -9 -56 12 -69 34 -22 66 41 36 71 -16 16 -33 15
-48 -2z m45 -31 c0 -23 -4 -30 -20 -30 -21 0 -31 25 -21 51 11 28 41 12 41
-21z"/>
<path d="M9067 4083 c-14 -14 -6 -34 18 -43 33 -13 33 -34 -1 -27 -16 3 -22 1
-16 -5 15 -15 46 -5 50 15 2 11 -6 20 -22 27 -35 13 -34 34 0 26 17 -5 23 -3
19 4 -7 11 -38 14 -48 3z"/>
<path d="M3884 3947 c-3 -8 -4 -54 -2 -103 l3 -89 880 0 880 0 0 100 0 100
-878 3 c-724 2 -878 0 -883 -11z m1756 -92 l0 -95 -875 0 -875 0 0 95 0 95
875 0 875 0 0 -95z"/>
<path d="M3936 3901 c-3 -5 3 -7 14 -4 27 7 27 -27 0 -52 -27 -25 -25 -35 8
-34 24 2 25 2 4 6 l-24 5 22 23 c12 13 20 31 18 41 -4 21 -33 31 -42 15z"/>
<path d="M4010 3881 c0 -25 3 -28 21 -24 17 5 20 2 17 -13 -2 -12 -12 -19 -26
-18 -14 0 -19 -3 -13 -9 16 -16 46 -3 49 21 3 17 -2 25 -17 29 -28 7 -27 30 2
36 19 4 18 4 -5 6 -25 1 -28 -3 -28 -28z"/>
<path d="M4086 3901 c-3 -5 3 -7 14 -4 27 7 27 -27 0 -52 -27 -25 -25 -35 8
-34 24 2 25 2 4 6 l-24 5 22 23 c12 13 20 31 18 41 -4 21 -33 31 -42 15z"/>
<path d="M5864 3947 c-3 -8 -4 -54 -2 -103 l3 -89 880 0 880 0 0 100 0 100
-878 3 c-724 2 -878 0 -883 -11z m1756 -92 l0 -95 -875 0 -875 0 0 95 0 95
875 0 875 0 0 -95z"/>
<path d="M5913 3895 c-3 -9 -3 -19 1 -22 3 -4 6 2 6 11 0 12 5 16 16 12 8 -3
12 -2 9 4 -9 15 -25 12 -32 -5z"/>
<path d="M6023 3895 c-3 -9 -3 -19 1 -22 3 -4 6 2 6 11 0 12 5 16 16 12 8 -3
12 -2 9 4 -9 15 -25 12 -32 -5z"/>
<path d="M6094 3886 c-9 -39 3 -78 24 -74 13 3 17 14 17 48 0 34 -4 45 -17 48
-12 2 -19 -5 -24 -22z m36 -27 c0 -28 -4 -39 -12 -37 -24 8 -22 78 2 78 5 0
10 -18 10 -41z"/>
<path d="M6170 3891 c-5 -11 -10 -28 -10 -37 0 -14 3 -15 12 -6 19 19 38 14
38 -9 0 -17 -5 -20 -21 -16 -16 4 -19 3 -11 -5 17 -17 44 -1 40 24 -2 17 -9
23 -25 22 -25 -1 -27 4 -14 25 5 8 16 11 26 8 9 -4 14 -3 10 3 -10 16 -34 11
-45 -9z"/>
<path d="M6270 3900 c-1 -8 -1 -25 0 -37 1 -13 -4 -23 -10 -23 -7 0 -9 7 -6
16 3 8 2 12 -4 9 -15 -10 -12 -35 5 -35 8 0 15 -5 15 -10 0 -6 6 -5 14 2 8 7
10 15 6 18 -5 3 -10 21 -13 40 -2 19 -5 28 -7 20z"/>
<path d="M6316 3901 c-3 -5 3 -7 14 -4 14 4 20 0 20 -11 0 -9 -5 -16 -12 -16
-6 0 -4 -6 7 -13 22 -17 11 -41 -16 -34 -11 3 -17 1 -13 -4 9 -16 42 -10 48 9
14 42 -28 106 -48 73z"/>
<path d="M6420 3900 c-1 -8 -1 -25 0 -37 1 -13 -4 -23 -10 -23 -7 0 -9 7 -6
16 3 8 2 12 -4 9 -15 -10 -12 -35 5 -35 8 0 15 -5 15 -10 0 -6 6 -5 14 2 8 7
10 15 6 18 -5 3 -10 21 -13 40 -2 19 -5 28 -7 20z"/>
<path d="M6464 3886 c-9 -39 3 -78 24 -74 13 3 17 14 17 48 0 34 -4 45 -17 48
-12 2 -19 -5 -24 -22z m36 -27 c0 -28 -4 -39 -12 -37 -24 8 -22 78 2 78 5 0
10 -18 10 -41z"/>
<path d="M6540 3900 c0 -5 6 -7 14 -4 17 7 30 -12 15 -22 -8 -5 -8 -9 1 -14
18 -11 4 -44 -15 -36 -8 3 -15 1 -15 -5 0 -6 10 -9 23 -7 18 2 22 9 22 38 0
19 -1 41 -3 48 -5 14 -42 17 -42 2z"/>
<path d="M6614 3886 c-9 -39 3 -78 24 -74 13 3 17 14 17 48 0 34 -4 45 -17 48
-12 2 -19 -5 -24 -22z m36 -27 c0 -28 -4 -39 -12 -37 -24 8 -22 78 2 78 5 0
10 -18 10 -41z"/>
<path d="M6700 3895 c-8 -9 -9 -15 -2 -15 6 0 13 -17 15 -37 3 -31 4 -29 5 15
2 57 1 60 -18 37z"/>
<path d="M6770 3895 c-8 -9 -9 -15 -2 -15 6 0 13 -17 15 -37 3 -31 4 -29 5 15
2 57 1 60 -18 37z"/>
<path d="M6831 3891 c-6 -11 -11 -28 -10 -38 0 -10 5 -3 10 15 10 34 24 42 32
17 4 -12 5 -11 3 1 -2 25 -23 28 -35 5z"/>
<path d="M6903 3895 c-3 -9 -3 -19 1 -22 3 -4 6 2 6 11 0 12 5 16 16 12 8 -3
12 -2 9 4 -9 15 -25 12 -32 -5z"/>
<path d="M6974 3886 c-9 -39 3 -78 24 -74 13 3 17 14 17 48 0 34 -4 45 -17 48
-12 2 -19 -5 -24 -22z m36 -27 c0 -28 -4 -39 -12 -37 -24 8 -22 78 2 78 5 0
10 -18 10 -41z"/>
<path d="M7050 3900 c0 -5 6 -7 14 -4 17 7 30 -12 15 -22 -8 -5 -8 -9 1 -14
18 -11 4 -44 -15 -36 -8 3 -15 1 -15 -5 0 -6 10 -9 23 -7 18 2 22 9 22 38 0
19 -1 41 -3 48 -5 14 -42 17 -42 2z"/>
<path d="M7150 3900 c-1 -8 -1 -25 0 -37 1 -13 -4 -23 -10 -23 -7 0 -9 7 -6
16 3 8 2 12 -4 9 -15 -10 -12 -35 5 -35 8 0 15 -5 15 -10 0 -6 6 -5 14 2 8 7
10 15 6 18 -5 3 -10 21 -13 40 -2 19 -5 28 -7 20z"/>
<path d="M7196 3901 c-3 -5 3 -7 14 -4 14 4 20 0 20 -11 0 -9 -5 -16 -12 -16
-6 0 -4 -6 7 -13 22 -17 11 -41 -16 -34 -11 3 -17 1 -13 -4 9 -16 42 -10 48 9
14 42 -28 106 -48 73z"/>
<path d="M5952 3860 c0 -14 2 -19 5 -12 2 6 2 18 0 25 -3 6 -5 1 -5 -13z"/>
<path d="M6062 3860 c0 -14 2 -19 5 -12 2 6 2 18 0 25 -3 6 -5 1 -5 -13z"/>
<path d="M6942 3860 c0 -14 2 -19 5 -12 2 6 2 18 0 25 -3 6 -5 1 -5 -13z"/>
<path d="M5911 3838 c-1 -22 18 -33 32 -19 9 9 8 11 -5 6 -11 -4 -18 0 -21 12
-4 15 -5 16 -6 1z"/>
<path d="M6021 3838 c-1 -22 18 -33 32 -19 9 9 8 11 -5 6 -11 -4 -18 0 -21 12
-4 15 -5 16 -6 1z"/>
<path d="M6861 3836 c-1 -13 -6 -16 -18 -11 -15 5 -16 4 -5 -6 15 -16 37 2 29
23 -4 8 -6 6 -6 -6z"/>
<path d="M6901 3838 c-1 -22 18 -33 32 -19 9 9 8 11 -5 6 -11 -4 -18 0 -21 12
-4 15 -5 16 -6 1z"/>
<path d="M7834 3947 c-3 -8 -4 -54 -2 -103 l3 -89 880 0 880 0 0 100 0 100
-878 3 c-724 2 -878 0 -883 -11z m1756 -92 l0 -95 -875 0 -875 0 0 95 0 95
875 0 875 0 0 -95z"/>
<path d="M7911 3897 c-9 -11 -10 -17 -2 -17 6 0 11 -10 11 -21 0 -16 -5 -20
-20 -16 -11 3 -20 1 -20 -4 0 -5 9 -9 19 -9 11 0 21 -5 23 -12 8 -23 14 16 8
56 -4 35 -6 37 -19 23z"/>
<path d="M7961 3891 c-6 -11 -11 -28 -10 -38 0 -10 5 -3 10 15 10 34 24 42 32
17 4 -12 5 -11 3 1 -2 25 -23 28 -35 5z"/>
<path d="M8034 3896 c-3 -8 -4 -29 -2 -48 2 -25 8 -33 23 -33 14 0 20 7 20 24
0 13 -6 25 -13 27 -7 1 -8 0 -2 -3 16 -8 12 -43 -6 -43 -12 0 -14 9 -12 38 2
28 7 37 20 36 10 -1 15 2 12 7 -8 14 -34 11 -40 -5z"/>
<path d="M8105 3890 c-8 -27 3 -43 26 -37 27 7 24 -22 -3 -33 -14 -5 -17 -9
-7 -9 22 -1 39 19 39 49 0 46 -43 69 -55 30z m41 -1 c10 -17 -13 -36 -27 -22
-12 12 -4 33 11 33 5 0 12 -5 16 -11z"/>
<path d="M8180 3881 c0 -25 3 -28 21 -24 17 5 20 2 17 -13 -2 -12 -12 -19 -26
-18 -14 0 -19 -3 -13 -9 16 -16 46 -3 49 21 3 17 -2 25 -17 29 -28 7 -27 30 2
36 19 4 18 4 -5 6 -25 1 -28 -3 -28 -28z"/>
<path d="M8256 3901 c-3 -5 3 -7 14 -4 27 7 27 -27 0 -52 -27 -25 -25 -35 8
-34 24 2 25 2 4 6 l-24 5 22 23 c12 13 20 31 18 41 -4 21 -33 31 -42 15z"/>
<path d="M8391 3891 c-7 -13 -8 -21 -2 -17 7 4 11 -1 11 -13 0 -12 -7 -21 -16
-21 -9 0 -12 5 -8 12 4 7 3 8 -4 4 -18 -11 -14 -26 7 -26 11 0 21 -5 23 -12 8
-24 14 17 8 57 -5 39 -6 40 -19 16z"/>
<path d="M7991 3836 c-1 -13 -6 -16 -18 -11 -15 5 -16 4 -5 -6 15 -16 37 2 29
23 -4 8 -6 6 -6 -6z"/>
<path d="M3740 2615 l0 -875 3080 0 3080 0 0 875 0 875 -3080 0 -3080 0 0
-875z m1620 725 l0 -140 -805 0 -805 0 0 140 0 140 805 0 805 0 0 -140z m1980
0 l0 -140 -985 0 -985 0 0 140 0 140 985 0 985 0 0 -140z m1280 0 l0 -140
-635 0 -635 0 0 140 0 140 635 0 635 0 0 -140z m1270 0 l0 -140 -630 0 -630 0
0 140 0 140 630 0 630 0 0 -140z m-4530 -290 l0 -140 -805 0 -805 0 0 140 0
140 805 0 805 0 0 -140z m1980 0 l0 -140 -985 0 -985 0 0 140 0 140 985 0 985
0 0 -140z m1280 0 l0 -140 -635 0 -635 0 0 140 0 140 635 0 635 0 0 -140z
m1270 0 l0 -140 -630 0 -630 0 0 140 0 140 630 0 630 0 0 -140z m-4530 -290
l0 -140 -805 0 -805 0 0 140 0 140 805 0 805 0 0 -140z m1980 0 l0 -140 -985
0 -985 0 0 140 0 140 985 0 985 0 0 -140z m1280 0 l0 -140 -635 0 -635 0 0
140 0 140 635 0 635 0 0 -140z m1270 0 l0 -140 -630 0 -630 0 0 140 0 140 630
0 630 0 0 -140z m-4530 -290 l0 -140 -805 0 -805 0 0 140 0 140 805 0 805 0 0
-140z m1980 0 l0 -140 -985 0 -985 0 0 140 0 140 985 0 985 0 0 -140z m1280 0
l0 -140 -635 0 -635 0 0 140 0 140 635 0 635 0 0 -140z m1270 0 l0 -140 -630
0 -630 0 0 140 0 140 630 0 630 0 0 -140z m-4530 -290 l0 -140 -805 0 -805 0
0 140 0 140 805 0 805 0 0 -140z m1980 0 l0 -140 -985 0 -985 0 0 140 0 140
985 0 985 0 0 -140z m1280 0 l0 -140 -635 0 -635 0 0 140 0 140 635 0 635 0 0
-140z m1270 0 l0 -140 -630 0 -630 0 0 140 0 140 630 0 630 0 0 -140z m-4530
-290 l0 -140 -805 0 -805 0 0 140 0 140 805 0 805 0 0 -140z m1980 0 l0 -140
-985 0 -985 0 0 140 0 140 985 0 985 0 0 -140z m1280 0 l0 -140 -635 0 -635 0
0 140 0 140 635 0 635 0 0 -140z m1270 0 l0 -140 -630 0 -630 0 0 140 0 140
630 0 630 0 0 -140z"/>
<path d="M4190 3351 c0 -36 4 -61 11 -61 5 0 8 4 5 9 -11 18 6 39 35 45 26 5
30 10 27 33 -3 24 -8 28 -40 31 l-38 3 0 -60z m60 23 c0 -10 -7 -14 -22 -12
-32 5 -35 28 -4 28 17 0 26 -5 26 -16z"/>
<path d="M4805 3400 c-3 -5 -1 -10 4 -10 6 0 11 5 11 10 0 6 -2 10 -4 10 -3 0
-8 -4 -11 -10z"/>
<path d="M4538 3387 c-9 -26 4 -97 18 -97 16 0 19 16 4 25 -14 9 -12 43 2 47
9 3 8 9 -4 21 -11 12 -17 13 -20 4z"/>
<path d="M4290 3334 c0 -24 5 -44 10 -44 6 0 10 14 10 30 0 18 6 33 15 36 23
9 18 22 -10 22 -23 0 -25 -4 -25 -44z"/>
<path d="M4360 3359 c-17 -31 2 -72 32 -67 12 2 23 9 26 17 3 9 -1 11 -16 7
-11 -4 -23 -2 -27 4 -4 6 6 10 24 10 27 0 30 2 22 23 -11 30 -46 34 -61 6z
m43 -6 c-7 -2 -19 -2 -25 0 -7 3 -2 5 12 5 14 0 19 -2 13 -5z"/>
<path d="M4447 3374 c-14 -15 -6 -35 18 -44 34 -13 32 -24 -2 -15 -26 6 -27 5
-12 -10 11 -11 24 -15 38 -10 29 9 26 31 -6 50 -25 14 -26 16 -5 11 15 -3 22
0 19 7 -4 14 -39 21 -50 11z"/>
<path d="M4597 3374 c-13 -14 -7 -22 13 -17 29 8 25 -6 -6 -17 -38 -15 -28
-45 14 -45 32 -1 33 0 30 40 -2 31 -7 41 -23 43 -12 2 -24 0 -28 -4z m33 -54
c0 -5 -7 -10 -15 -10 -8 0 -15 5 -15 10 0 6 7 10 15 10 8 0 15 -4 15 -10z"/>
<path d="M4681 3359 c-11 -30 -3 -56 21 -73 19 -14 19 -14 1 -19 -16 -4 -17
-5 0 -6 10 -1 21 10 27 25 13 33 14 31 -12 30 -17 -1 -23 5 -23 19 0 14 6 20
23 19 28 -1 23 20 -6 24 -16 2 -25 -3 -31 -19z"/>
<path d="M4770 3365 c-12 -14 -10 -16 16 -10 l29 6 -28 -16 c-38 -22 -32 -49
11 -52 33 -1 33 -1 30 40 -2 34 -7 43 -24 45 -11 2 -27 -4 -34 -13z m40 -45
c0 -5 -7 -10 -15 -10 -8 0 -15 5 -15 10 0 6 7 10 15 10 8 0 15 -4 15 -10z"/>
<path d="M4860 3366 c-28 -35 11 -93 48 -70 35 22 22 84 -18 84 -10 0 -23 -7
-30 -14z m50 -32 c0 -33 -33 -30 -38 4 -3 17 2 22 17 22 16 0 21 -6 21 -26z"/>
<path d="M5915 3398 c-26 -73 -34 -102 -29 -107 3 -3 10 2 15 12 13 22 55 22
63 1 4 -9 9 -14 13 -10 3 3 -2 31 -12 61 -18 52 -40 71 -50 43z m29 -34 c9
-22 8 -24 -9 -24 -8 0 -15 9 -15 20 0 24 15 27 24 4z"/>
<path d="M6313 3395 c-16 -29 -2 -99 20 -103 9 -2 17 1 17 7 0 6 -5 11 -11 11
-7 0 -10 12 -7 33 3 17 2 41 -2 52 -7 19 -7 19 -17 0z"/>
<path d="M6360 3400 c0 -5 5 -10 10 -10 6 0 10 5 10 10 0 6 -4 10 -10 10 -5 0
-10 -4 -10 -10z"/>
<path d="M6705 3400 c-3 -5 -1 -10 4 -10 6 0 11 5 11 10 0 6 -2 10 -4 10 -3 0
-8 -4 -11 -10z"/>
<path d="M6000 3334 c0 -50 17 -60 22 -12 4 46 28 49 28 4 0 -20 5 -36 10 -36
6 0 10 16 10 35 0 24 5 35 15 35 10 0 15 -11 15 -35 0 -19 5 -35 11 -35 6 0 9
17 7 43 l-3 42 -57 1 -58 1 0 -43z"/>
<path d="M6156 3364 c-9 -8 -16 -22 -16 -29 0 -17 27 -45 44 -45 19 0 36 22
36 45 0 41 -36 58 -64 29z m52 -27 c4 -20 -25 -34 -40 -19 -15 15 -1 44 19 40
10 -2 19 -11 21 -21z"/>
<path d="M6240 3334 c0 -24 5 -44 10 -44 6 0 10 14 10 30 0 18 6 33 15 36 23
9 18 22 -10 22 -23 0 -25 -4 -25 -44z"/>
<path d="M6360 3335 c0 -25 5 -45 10 -45 6 0 10 20 10 45 0 25 -4 45 -10 45
-5 0 -10 -20 -10 -45z"/>
<path d="M6400 3370 c0 -5 7 -10 15 -10 8 0 15 -4 15 -9 0 -5 -7 -14 -15 -21
-25 -21 -18 -40 14 -40 17 0 33 5 36 10 3 6 -3 10 -14 10 -25 0 -27 13 -6 30
25 21 18 40 -15 40 -16 0 -30 -4 -30 -10z"/>
<path d="M6490 3365 c-12 -14 -10 -16 16 -10 l29 6 -28 -16 c-38 -22 -32 -49
11 -52 33 -1 33 -1 30 40 -2 34 -7 43 -24 45 -11 2 -27 -4 -34 -13z m40 -45
c0 -5 -7 -10 -15 -10 -8 0 -15 5 -15 10 0 6 7 10 15 10 8 0 15 -4 15 -10z"/>
<path d="M6582 3368 c-18 -18 -14 -53 8 -73 16 -14 17 -20 8 -27 -10 -6 -9 -8
3 -8 9 0 19 8 23 18 3 9 9 23 12 30 4 10 -1 11 -20 6 -23 -5 -26 -3 -26 21 0
24 3 26 25 21 19 -5 23 -3 19 9 -7 18 -35 20 -52 3z"/>
<path d="M6669 3364 c-11 -13 -9 -15 17 -9 l29 6 -28 -16 c-38 -22 -32 -49 11
-52 29 -1 32 1 32 27 0 16 -3 35 -6 44 -8 20 -38 21 -55 0z m41 -44 c0 -5 -7
-10 -15 -10 -8 0 -15 5 -15 10 0 6 7 10 15 10 8 0 15 -4 15 -10z"/>
<path d="M6762 3368 c-28 -28 -3 -84 34 -76 28 5 40 33 26 62 -12 28 -40 34
-60 14z m48 -33 c0 -18 -5 -25 -20 -25 -15 0 -20 7 -20 25 0 18 5 25 20 25 15
0 20 -7 20 -25z"/>
<path d="M7820 3360 c0 -36 -4 -50 -14 -50 -8 0 -16 6 -19 13 -2 6 -8 9 -13 4
-4 -4 0 -15 9 -25 29 -28 51 -5 55 57 2 31 -1 51 -7 51 -6 0 -11 -22 -11 -50z"/>
<path d="M7872 3338 c3 -41 5 -43 36 -45 32 -1 32 -1 32 43 0 24 -4 44 -10 44
-5 0 -10 -16 -10 -35 0 -24 -5 -35 -15 -35 -10 0 -15 11 -15 35 0 19 -5 35
-11 35 -6 0 -9 -17 -7 -42z"/>
<path d="M7970 3335 c0 -25 4 -45 9 -45 4 0 7 11 5 25 -1 14 4 32 12 39 19 20
18 26 -6 26 -17 0 -20 -7 -20 -45z"/>
<path d="M8042 3368 c-19 -19 -15 -66 7 -73 45 -14 76 31 45 66 -20 22 -35 24
-52 7z m46 -31 c4 -20 -25 -34 -40 -19 -15 15 -1 44 19 40 10 -2 19 -11 21
-21z"/>
<path d="M8137 3373 c-15 -14 -7 -43 12 -43 11 0 23 -5 27 -12 5 -8 -2 -9 -26
-5 -28 6 -31 5 -20 -8 18 -22 54 -15 58 10 2 15 -5 24 -25 33 l-28 12 28 -5
c29 -6 38 9 11 19 -20 8 -29 8 -37 -1z"/>
<path d="M9090 3400 c0 -5 7 -10 15 -10 11 0 15 -12 15 -50 0 -27 5 -50 10
-50 6 0 10 23 10 50 0 37 4 50 14 50 8 0 18 5 21 10 4 6 -12 10 -39 10 -25 0
-46 -4 -46 -10z"/>
<path d="M9273 3395 c-16 -29 -2 -99 20 -103 9 -2 17 1 17 7 0 6 -5 11 -11 11
-7 0 -10 12 -7 33 3 17 2 41 -2 52 -7 19 -7 19 -17 0z"/>
<path d="M9410 3350 c0 -33 4 -60 10 -60 6 0 10 27 10 60 0 33 -4 60 -10 60
-6 0 -10 -27 -10 -60z"/>
<path d="M9180 3366 c-28 -35 11 -93 48 -70 35 22 22 84 -18 84 -10 0 -23 -7
-30 -14z m50 -31 c0 -18 -5 -25 -20 -25 -15 0 -20 7 -20 25 0 18 5 25 20 25
15 0 20 -7 20 -25z"/>
<path d="M9330 3365 c-12 -14 -10 -16 16 -10 l29 6 -28 -16 c-38 -22 -32 -49
11 -52 33 -1 33 -1 30 40 -2 34 -7 43 -24 45 -11 2 -27 -4 -34 -13z m40 -45
c0 -5 -7 -10 -15 -10 -8 0 -15 5 -15 10 0 6 7 10 15 10 8 0 15 -4 15 -10z"/>
<path d="M4545 3100 c-16 -18 -16 -20 -3 -15 14 6 17 -2 21 -42 3 -44 4 -43 5
15 1 34 0 62 -1 62 -2 0 -12 -9 -22 -20z"/>
<path d="M6105 3100 c-16 -18 -16 -20 -3 -15 14 6 17 -2 21 -42 3 -44 4 -43 5
15 1 34 0 62 -1 62 -2 0 -12 -9 -22 -20z"/>
<path d="M6174 3106 c-10 -27 1 -61 21 -64 19 -4 19 -3 1 10 -22 17 -18 51 7
56 14 3 17 -4 17 -43 0 -48 -23 -72 -41 -44 -6 9 -9 10 -9 2 0 -17 17 -25 39
-18 42 13 33 115 -9 115 -11 0 -23 -6 -26 -14z"/>
<path d="M6267 3114 c-16 -16 -6 -44 18 -50 18 -4 25 -13 25 -30 0 -36 -37
-33 -43 4 -5 26 -5 26 -3 -3 1 -23 6 -31 23 -33 21 -3 49 29 36 42 -3 3 -6 20
-7 38 -1 25 -6 34 -21 36 -12 2 -24 0 -28 -4z m39 -15 c10 -17 -13 -36 -27
-22 -12 12 -4 33 11 33 5 0 12 -5 16 -11z"/>
<path d="M6368 3082 c-34 -51 -34 -52 -4 -52 15 0 26 -7 28 -17 7 -34 14 19 8
66 l-5 45 -27 -42z m22 -17 c0 -18 -5 -25 -20 -25 -20 0 -20 1 -4 25 9 14 18
25 20 25 2 0 4 -11 4 -25z"/>
<path d="M6505 3100 c-16 -18 -16 -20 -3 -15 14 6 17 -2 21 -42 3 -44 4 -43 5
15 1 34 0 62 -1 62 -2 0 -12 -9 -22 -20z"/>
<path d="M6575 3110 c-4 -6 -4 -14 -1 -17 3 -4 6 -1 6 5 0 15 27 15 36 0 4 -6
-1 -17 -11 -25 -17 -12 -17 -13 -2 -13 11 0 17 -8 17 -25 0 -18 -5 -25 -19
-25 -11 0 -22 5 -24 10 -3 6 -4 5 -3 -2 1 -7 12 -14 24 -16 24 -4 48 31 35 51
-4 6 -8 23 -8 37 0 18 -6 26 -22 28 -11 2 -24 -2 -28 -8z"/>
<path d="M7715 3110 c-4 -6 -4 -14 -1 -17 3 -4 6 -1 6 5 0 15 27 15 36 0 4 -6
-1 -17 -11 -25 -17 -12 -17 -13 -2 -13 11 0 17 -8 17 -25 0 -18 -5 -25 -19
-25 -11 0 -22 5 -24 10 -3 6 -4 5 -3 -2 1 -7 12 -14 24 -16 24 -4 48 31 35 51
-4 6 -8 23 -8 37 0 18 -6 26 -22 28 -11 2 -24 -2 -28 -8z"/>
<path d="M7799 3103 c-13 -16 -12 -17 3 -4 20 15 48 8 48 -12 0 -8 -9 -22 -21
-33 -11 -10 -25 -27 -30 -36 -9 -16 -5 -18 28 -17 32 2 34 3 9 6 l-28 5 27 28
c17 18 25 36 23 51 -4 30 -39 37 -59 12z"/>
<path d="M7905 3098 c-16 -17 -17 -20 -3 -15 14 5 18 -2 21 -41 3 -42 4 -40 5
16 1 34 1 62 0 61 -2 0 -12 -10 -23 -21z"/>
<path d="M7993 3113 c31 -5 32 -8 12 -43 -8 -14 -14 -36 -14 -50 0 -17 5 -10
15 22 8 26 19 50 24 53 22 13 8 25 -27 24 -31 -2 -33 -3 -10 -6z"/>
<path d="M8114 3106 c-3 -7 -4 -33 -2 -57 3 -39 6 -44 28 -44 31 0 47 46 31
88 -11 29 -47 38 -57 13z m41 -47 c0 -32 -4 -44 -15 -44 -16 0 -26 54 -16 82
12 30 31 6 31 -38z"/>
<path d="M8199 3103 c-13 -16 -12 -17 3 -4 20 15 48 8 48 -12 0 -8 -9 -22 -21
-33 -11 -10 -25 -27 -30 -36 -9 -16 -5 -18 28 -17 32 2 34 3 9 6 l-28 5 27 28
c17 18 25 36 23 51 -4 30 -39 37 -59 12z"/>
<path d="M8990 3103 c0 -12 3 -14 8 -7 4 7 16 14 27 17 15 4 14 5 -7 6 -21 1
-28 -4 -28 -16z"/>
<path d="M9077 3113 c-4 -3 -7 -11 -7 -17 0 -6 5 -5 12 2 16 16 35 15 42 -3 3
-9 -7 -29 -24 -49 -17 -18 -30 -36 -30 -40 0 -3 17 -5 38 -5 l37 2 -34 6 -33
6 22 20 c33 30 43 54 29 71 -12 15 -41 19 -52 7z"/>
<path d="M9164 3106 c-3 -7 -4 -33 -2 -57 3 -39 6 -44 28 -44 31 0 47 46 31
88 -11 29 -47 38 -57 13z m41 -47 c0 -32 -4 -44 -15 -44 -16 0 -26 54 -16 82
12 30 31 6 31 -38z"/>
<path d="M9405 3100 c-16 -18 -16 -20 -3 -15 14 6 17 -2 21 -42 3 -44 4 -43 5
15 1 34 0 62 -1 62 -2 0 -12 -9 -22 -20z"/>
<path d="M9492 3081 c-27 -48 -27 -51 -2 -51 11 0 20 -7 20 -15 0 -20 18 -19
22 2 5 26 -3 103 -11 103 -4 0 -17 -17 -29 -39z m18 -16 c0 -15 -6 -25 -15
-25 -12 0 -13 4 -3 25 6 14 13 25 15 25 1 0 3 -11 3 -25z"/>
<path d="M9264 3094 c-15 -13 -16 -15 -2 -10 14 4 18 -3 21 -42 3 -46 3 -46 5
11 1 31 1 57 -1 57 -2 0 -12 -7 -23 -16z"/>
<path d="M8980 3071 c0 -5 12 -9 27 -8 22 2 29 -3 31 -21 4 -27 -22 -40 -45
-21 -14 12 -16 12 -11 -1 7 -21 48 -19 62 3 8 12 8 22 0 35 -12 18 -64 30 -64
13z"/>
<path d="M4527 2823 c-14 -13 -7 -25 8 -13 16 13 45 7 45 -9 0 -6 -13 -26 -30
-44 -16 -19 -30 -37 -30 -41 0 -3 17 -5 38 -5 30 2 32 3 9 6 l-28 4 26 30 c14
17 25 36 25 43 0 27 -45 48 -63 29z"/>
<path d="M6105 2810 c-16 -18 -16 -20 -3 -15 14 6 17 -2 21 -42 3 -44 4 -43 5
15 1 34 0 62 -1 62 -2 0 -12 -9 -22 -20z"/>
<path d="M6174 2816 c-10 -27 1 -61 21 -64 19 -4 19 -3 1 10 -22 17 -18 51 7
56 14 3 17 -4 17 -43 0 -48 -23 -72 -41 -44 -6 9 -9 10 -9 2 0 -17 17 -25 39
-18 42 13 33 115 -9 115 -11 0 -23 -6 -26 -14z"/>
<path d="M6267 2824 c-16 -16 -6 -44 18 -50 18 -4 25 -13 25 -30 0 -36 -37
-33 -43 4 -5 26 -5 26 -3 -3 1 -23 6 -31 23 -33 21 -3 49 29 36 42 -3 3 -6 20
-7 38 -1 25 -6 34 -21 36 -12 2 -24 0 -28 -4z m39 -15 c10 -17 -13 -36 -27
-22 -12 12 -4 33 11 33 5 0 12 -5 16 -11z"/>
<path d="M6368 2792 c-34 -51 -34 -52 -4 -52 15 0 26 -7 28 -17 7 -34 14 19 8
66 l-5 45 -27 -42z m22 -17 c0 -18 -5 -25 -20 -25 -20 0 -20 1 -4 25 9 14 18
25 20 25 2 0 4 -11 4 -25z"/>
<path d="M6505 2810 c-16 -18 -16 -20 -3 -15 14 6 17 -2 21 -42 3 -44 4 -43 5
15 1 34 0 62 -1 62 -2 0 -12 -9 -22 -20z"/>
<path d="M6575 2820 c-4 -6 -4 -14 -1 -17 3 -4 6 -1 6 5 0 15 27 15 36 0 4 -6
-1 -17 -11 -25 -17 -12 -17 -13 -2 -13 11 0 17 -8 17 -25 0 -18 -5 -25 -19
-25 -11 0 -22 5 -24 10 -3 6 -4 5 -3 -2 1 -7 12 -14 24 -16 24 -4 48 31 35 51
-4 6 -8 23 -8 37 0 18 -6 26 -22 28 -11 2 -24 -2 -28 -8z"/>
<path d="M7715 2820 c-4 -6 -4 -14 -1 -17 3 -4 6 -1 6 5 0 15 27 15 36 0 4 -6
-1 -17 -11 -25 -17 -12 -17 -13 -2 -13 11 0 17 -8 17 -25 0 -18 -5 -25 -19
-25 -11 0 -22 5 -24 10 -3 6 -4 5 -3 -2 1 -7 12 -14 24 -16 24 -4 48 31 35 51
-4 6 -8 23 -8 37 0 18 -6 26 -22 28 -11 2 -24 -2 -28 -8z"/>
<path d="M7799 2813 c-13 -16 -12 -17 3 -4 20 15 48 8 48 -12 0 -8 -9 -22 -21
-33 -11 -10 -25 -27 -30 -36 -9 -16 -5 -18 28 -17 32 2 34 3 9 6 l-28 5 27 28
c17 18 25 36 23 51 -4 30 -39 37 -59 12z"/>
<path d="M7889 2803 c-20 -54 25 -124 52 -81 10 15 12 69 3 92 -10 26 -43 19
-55 -11z m46 -32 c0 -49 -17 -64 -35 -31 -16 29 -3 82 18 78 13 -2 17 -14 17
-47z"/>
<path d="M7998 2795 c-34 -49 -35 -55 -4 -55 15 0 26 -7 28 -17 7 -35 14 19 8
67 l-5 45 -27 -40z m19 -42 c-3 -3 -13 -3 -21 -1 -15 3 -15 6 1 28 l18 25 3
-23 c2 -13 1 -26 -1 -29z"/>
<path d="M8117 2824 c-4 -4 -7 -12 -7 -18 0 -6 4 -5 9 3 11 17 41 7 41 -13 0
-9 -14 -31 -31 -51 l-31 -35 38 1 c32 2 34 3 10 6 l-28 5 27 28 c31 33 31 73
0 78 -12 2 -24 0 -28 -4z"/>
<path d="M8207 2823 c-4 -3 -7 -16 -7 -28 0 -16 6 -21 23 -21 28 1 37 -41 11
-51 -10 -4 -19 -2 -22 5 -2 7 -8 12 -14 12 -6 0 -5 -6 2 -15 7 -9 23 -15 34
-13 17 2 21 10 21 38 0 29 -4 36 -22 38 -32 5 -29 30 5 35 l27 4 -26 2 c-14 0
-29 -2 -32 -6z"/>
<path d="M8990 2813 c0 -12 3 -14 8 -7 4 7 16 14 27 17 15 4 14 5 -7 6 -21 1
-28 -4 -28 -16z"/>
<path d="M9095 2810 c-16 -18 -16 -20 -3 -15 14 6 17 -2 21 -42 3 -44 4 -43 5
15 1 34 0 62 -1 62 -2 0 -12 -9 -22 -20z"/>
<path d="M9167 2824 c-16 -16 -6 -44 18 -50 18 -4 25 -13 25 -30 0 -36 -37
-33 -43 4 -5 26 -5 26 -3 -3 1 -23 6 -31 23 -33 21 -3 49 29 36 42 -3 3 -6 20
-7 38 -1 25 -6 34 -21 36 -12 2 -24 0 -28 -4z m39 -15 c10 -17 -13 -36 -27
-22 -12 12 -4 33 11 33 5 0 12 -5 16 -11z"/>
<path d="M9257 2824 c-16 -16 -6 -44 18 -50 18 -4 25 -13 25 -30 0 -36 -37
-33 -43 4 -5 26 -5 26 -3 -3 1 -23 6 -31 23 -33 21 -3 49 29 36 42 -3 3 -6 20
-7 38 -1 25 -6 34 -21 36 -12 2 -24 0 -28 -4z m39 -15 c10 -17 -13 -36 -27
-22 -12 12 -4 33 11 33 5 0 12 -5 16 -11z"/>
<path d="M9386 2813 c-6 -14 -5 -16 5 -5 7 6 19 12 26 12 17 0 17 -40 1 -40
-7 0 -5 -5 5 -11 9 -5 17 -17 17 -25 0 -21 -27 -29 -47 -13 -14 12 -16 12 -11
-1 2 -8 14 -16 25 -18 26 -4 48 22 38 45 -4 10 -8 29 -9 43 -1 31 -40 41 -50
13z"/>
<path d="M9480 2815 c-10 -12 -10 -18 0 -30 9 -10 9 -15 1 -15 -21 0 -12 -48
10 -55 28 -9 55 17 44 42 -4 10 -8 29 -9 43 -1 29 -27 38 -46 15z m40 -15 c0
-11 -6 -20 -14 -20 -18 0 -29 16 -21 30 11 18 35 11 35 -10z m8 -53 c4 -20
-25 -34 -40 -19 -15 15 -1 44 19 40 10 -2 19 -11 21 -21z"/>
<path d="M8980 2781 c0 -5 12 -9 27 -8 22 2 29 -3 31 -21 4 -27 -22 -40 -45
-21 -14 12 -16 12 -11 -1 7 -21 48 -19 62 3 8 12 8 22 0 35 -12 18 -64 30 -64
13z"/>
<path d="M4530 2523 c-12 -15 -12 -16 0 -5 8 6 20 12 27 12 17 0 17 -40 1 -40
-7 0 -5 -5 5 -11 9 -5 17 -17 17 -25 0 -21 -27 -29 -48 -13 -16 12 -15 11 1
-6 14 -15 21 -17 35 -9 18 12 30 54 15 54 -5 0 -9 12 -8 27 0 33 -26 42 -45
16z"/>
<path d="M6105 2520 c-16 -18 -16 -20 -3 -15 14 6 17 -2 21 -42 3 -44 4 -43 5
15 1 34 0 62 -1 62 -2 0 -12 -9 -22 -20z"/>
<path d="M6174 2526 c-10 -27 1 -61 21 -64 19 -4 19 -3 1 10 -22 17 -18 51 7
56 14 3 17 -4 17 -43 0 -48 -23 -72 -41 -44 -6 9 -9 10 -9 2 0 -17 17 -25 39
-18 42 13 33 115 -9 115 -11 0 -23 -6 -26 -14z"/>
<path d="M6267 2534 c-16 -16 -6 -44 18 -50 18 -4 25 -13 25 -30 0 -36 -37
-33 -43 4 -5 26 -5 26 -3 -3 1 -23 6 -31 23 -33 21 -3 49 29 36 42 -3 3 -6 20
-7 38 -1 25 -6 34 -21 36 -12 2 -24 0 -28 -4z m39 -15 c10 -17 -13 -36 -27
-22 -12 12 -4 33 11 33 5 0 12 -5 16 -11z"/>
<path d="M6368 2502 c-34 -51 -34 -52 -4 -52 15 0 26 -7 28 -17 7 -34 14 19 8
66 l-5 45 -27 -42z m22 -17 c0 -18 -5 -25 -20 -25 -20 0 -20 1 -4 25 9 14 18
25 20 25 2 0 4 -11 4 -25z"/>
<path d="M6505 2520 c-16 -18 -16 -20 -3 -15 14 6 17 -2 21 -42 3 -44 4 -43 5
15 1 34 0 62 -1 62 -2 0 -12 -9 -22 -20z"/>
<path d="M6575 2530 c-4 -6 -4 -14 -1 -17 3 -4 6 -1 6 5 0 15 27 15 36 0 4 -6
-1 -17 -11 -25 -17 -12 -17 -13 -2 -13 11 0 17 -8 17 -25 0 -18 -5 -25 -19
-25 -11 0 -22 5 -24 10 -3 6 -4 5 -3 -2 1 -7 12 -14 24 -16 24 -4 48 31 35 51
-4 6 -8 23 -8 37 0 18 -6 26 -22 28 -11 2 -24 -2 -28 -8z"/>
<path d="M7715 2530 c-4 -6 -4 -14 -1 -17 3 -4 6 -1 6 5 0 15 27 15 36 0 4 -6
-1 -17 -11 -25 -17 -12 -17 -13 -2 -13 11 0 17 -8 17 -25 0 -18 -5 -25 -19
-25 -11 0 -22 5 -24 10 -3 6 -4 5 -3 -2 1 -7 12 -14 24 -16 24 -4 48 31 35 51
-4 6 -8 23 -8 37 0 18 -6 26 -22 28 -11 2 -24 -2 -28 -8z"/>
<path d="M7815 2518 c-16 -17 -17 -20 -3 -15 14 5 18 -2 21 -41 3 -42 4 -40 5
16 1 34 1 62 0 61 -2 0 -12 -10 -23 -21z"/>
<path d="M7890 2520 c-15 -28 5 -64 31 -57 12 3 19 0 19 -9 0 -20 -30 -30 -41
-13 -6 10 -9 11 -9 1 0 -19 28 -26 45 -12 8 7 15 29 15 49 0 57 -38 82 -60 41z
m45 -20 c0 -15 -6 -26 -16 -28 -19 -3 -31 21 -22 43 9 25 38 13 38 -15z"/>
<path d="M7995 2520 c-16 -18 -16 -20 -3 -15 14 6 17 -2 21 -42 3 -44 4 -43 5
15 1 34 0 62 -1 62 -2 0 -12 -9 -22 -20z"/>
<path d="M8148 2535 c-3 -4 -4 -22 -1 -41 4 -27 2 -34 -11 -34 -19 0 -21 11
-4 28 6 6 9 14 6 18 -4 3 -14 -8 -23 -25 -15 -31 -15 -31 9 -31 15 0 26 -7 29
-17 4 -17 5 -17 6 0 0 9 7 17 14 17 9 0 9 2 0 8 -6 4 -13 25 -15 46 -2 21 -6
35 -10 31z"/>
<path d="M8204 2527 c-3 -8 -4 -21 -3 -28 1 -8 -1 -22 -6 -32 -10 -23 12 -49
39 -45 25 4 35 46 14 59 -11 7 -11 9 0 9 8 0 12 9 10 23 -4 26 -45 37 -54 14z
m41 -17 c0 -8 -8 -16 -17 -18 -13 -2 -18 3 -18 18 0 15 5 20 18 18 9 -2 17
-10 17 -18z m3 -53 c4 -21 -27 -35 -38 -17 -12 19 0 42 19 38 9 -2 17 -11 19
-21z"/>
<path d="M8990 2523 c0 -12 3 -14 8 -7 4 7 16 14 27 17 15 4 14 5 -7 6 -21 1
-28 -4 -28 -16z"/>
<path d="M9095 2520 c-16 -18 -16 -20 -3 -15 14 6 17 -2 21 -42 3 -44 4 -43 5
15 1 34 0 62 -1 62 -2 0 -12 -9 -22 -20z"/>
<path d="M9177 2533 c32 -4 33 -5 19 -31 -7 -15 -16 -40 -19 -57 -6 -28 -6
-29 4 -5 6 14 19 42 29 63 l18 37 -41 -2 c-37 -1 -38 -2 -10 -5z"/>
<path d="M9256 2524 c-12 -31 -7 -41 19 -36 22 4 25 1 25 -22 0 -30 -27 -46
-42 -25 -8 12 -9 11 -5 -1 6 -24 44 -24 57 -1 14 27 -3 61 -31 61 -28 0 -19
23 12 31 l24 7 -26 1 c-16 1 -29 -5 -33 -15z"/>
<path d="M9392 2528 c-17 -17 -15 -83 4 -99 31 -26 70 25 43 57 -7 9 -21 13
-31 11 -11 -3 -18 0 -18 9 0 21 28 28 48 13 15 -13 16 -12 3 4 -16 20 -32 22
-49 5z m43 -68 c0 -29 -32 -41 -41 -16 -9 24 4 48 23 44 12 -2 18 -12 18 -28z"/>
<path d="M9495 2520 c-16 -18 -16 -20 -3 -15 14 6 17 -2 21 -42 3 -44 4 -43 5
15 1 34 0 62 -1 62 -2 0 -12 -9 -22 -20z"/>
<path d="M8980 2491 c0 -5 12 -9 27 -8 22 2 29 -3 31 -21 4 -27 -22 -40 -45
-21 -14 12 -16 12 -11 -1 7 -21 48 -19 62 3 8 12 8 22 0 35 -12 18 -64 30 -64
13z"/>
<path d="M4548 2215 c-34 -49 -35 -55 -4 -55 15 0 26 -7 28 -17 7 -35 14 19 8
67 l-5 45 -27 -40z m19 -42 c-3 -3 -13 -3 -21 -1 -15 3 -15 6 1 28 l18 25 3
-23 c2 -13 1 -26 -1 -29z"/>
<path d="M6105 2230 c-16 -18 -16 -20 -3 -15 14 6 17 -2 21 -42 3 -44 4 -43 5
15 1 34 0 62 -1 62 -2 0 -12 -9 -22 -20z"/>
<path d="M6174 2236 c-10 -27 1 -61 21 -64 19 -4 19 -3 1 10 -22 17 -18 51 7
56 14 3 17 -4 17 -43 0 -48 -23 -72 -41 -44 -6 9 -9 10 -9 2 0 -17 17 -25 39
-18 42 13 33 115 -9 115 -11 0 -23 -6 -26 -14z"/>
<path d="M6267 2244 c-16 -16 -6 -44 18 -50 18 -4 25 -13 25 -30 0 -36 -37
-33 -43 4 -5 26 -5 26 -3 -3 1 -23 6 -31 23 -33 21 -3 49 29 36 42 -3 3 -6 20
-7 38 -1 25 -6 34 -21 36 -12 2 -24 0 -28 -4z m39 -15 c10 -17 -13 -36 -27
-22 -12 12 -4 33 11 33 5 0 12 -5 16 -11z"/>
<path d="M6368 2212 c-34 -51 -34 -52 -4 -52 15 0 26 -7 28 -17 7 -34 14 19 8
66 l-5 45 -27 -42z m22 -17 c0 -18 -5 -25 -20 -25 -20 0 -20 1 -4 25 9 14 18
25 20 25 2 0 4 -11 4 -25z"/>
<path d="M6505 2230 c-16 -18 -16 -20 -3 -15 14 6 17 -2 21 -42 3 -44 4 -43 5
15 1 34 0 62 -1 62 -2 0 -12 -9 -22 -20z"/>
<path d="M6575 2240 c-4 -6 -4 -14 -1 -17 3 -4 6 -1 6 5 0 15 27 15 36 0 4 -6
-1 -17 -11 -25 -17 -12 -17 -13 -2 -13 11 0 17 -8 17 -25 0 -18 -5 -25 -19
-25 -11 0 -22 5 -24 10 -3 6 -4 5 -3 -2 1 -7 12 -14 24 -16 24 -4 48 31 35 51
-4 6 -8 23 -8 37 0 18 -6 26 -22 28 -11 2 -24 -2 -28 -8z"/>
<path d="M7715 2240 c-4 -6 -4 -14 -1 -17 3 -4 6 -1 6 5 0 15 27 15 36 0 4 -6
-1 -17 -11 -25 -17 -12 -17 -13 -2 -13 11 0 17 -8 17 -25 0 -18 -5 -25 -19
-25 -11 0 -22 5 -24 10 -3 6 -4 5 -3 -2 1 -7 12 -14 24 -16 24 -4 48 31 35 51
-4 6 -8 23 -8 37 0 18 -6 26 -22 28 -11 2 -24 -2 -28 -8z"/>
<path d="M7815 2228 c-16 -17 -17 -20 -3 -15 14 5 18 -2 21 -41 3 -42 4 -40 5
16 1 34 1 62 0 61 -2 0 -12 -10 -23 -21z"/>
<path d="M7907 2243 c31 -4 32 -5 19 -26 -8 -12 -17 -38 -20 -57 -5 -26 -1
-20 18 25 14 33 26 61 26 63 0 1 -17 1 -37 0 -37 -1 -37 -1 -6 -5z"/>
<path d="M7980 2235 c-10 -12 -10 -19 -2 -27 8 -8 7 -16 -1 -28 -12 -20 5 -50
28 -50 23 0 40 30 28 50 -8 12 -9 20 -1 28 13 13 -6 42 -27 42 -7 0 -18 -7
-25 -15z m45 -15 c0 -8 -8 -16 -17 -18 -13 -2 -18 3 -18 18 0 15 5 20 18 18 9
-2 17 -10 17 -18z m3 -53 c4 -20 -25 -34 -40 -19 -15 15 -1 44 19 40 10 -2 19
-11 21 -21z"/>
<path d="M8127 2243 c32 -4 33 -5 19 -31 -7 -15 -16 -40 -19 -57 -6 -28 -6
-29 4 -5 6 14 19 42 29 63 l18 37 -41 -2 c-37 -1 -38 -2 -10 -5z"/>
<path d="M8199 2233 c-13 -16 -12 -17 3 -4 20 15 48 8 48 -12 0 -8 -9 -22 -21
-33 -11 -10 -25 -27 -30 -36 -9 -16 -5 -18 28 -17 32 2 34 3 9 6 l-28 5 27 28
c17 18 25 36 23 51 -4 30 -39 37 -59 12z"/>
<path d="M8990 2233 c0 -12 3 -14 8 -7 4 7 16 14 27 17 15 4 14 5 -7 6 -21 1
-28 -4 -28 -16z"/>
<path d="M9095 2230 c-16 -18 -16 -20 -3 -15 14 6 17 -2 21 -42 3 -44 4 -43 5
15 1 34 0 62 -1 62 -2 0 -12 -9 -22 -20z"/>
<path d="M9160 2225 c-13 -33 -13 -51 0 -76 14 -25 46 -24 60 1 14 25 -3 61
-28 59 -16 -1 -16 -2 1 -6 22 -6 23 -51 1 -60 -9 -3 -20 0 -24 7 -9 15 -6 62
5 80 8 13 32 13 38 0 3 -6 4 -5 3 2 -1 7 -12 14 -24 16 -16 3 -25 -4 -32 -23z"/>
<path d="M9257 2244 c-4 -4 -7 -12 -7 -18 0 -6 4 -5 9 3 11 17 41 7 41 -13 0
-9 -14 -31 -31 -51 l-31 -35 38 1 c32 2 34 3 10 6 l-28 5 27 28 c31 33 31 73
0 78 -12 2 -24 0 -28 -4z"/>
<path d="M9390 2235 c-10 -12 -10 -18 0 -30 9 -10 9 -15 1 -15 -21 0 -12 -48
10 -55 28 -9 55 17 44 42 -4 10 -8 29 -9 43 -1 29 -27 38 -46 15z m40 -15 c0
-21 -24 -28 -35 -10 -8 14 3 30 21 30 8 0 14 -9 14 -20z m8 -53 c4 -20 -25
-34 -40 -19 -15 15 -1 44 19 40 10 -2 19 -11 21 -21z"/>
<path d="M9492 2211 c-27 -48 -27 -51 -2 -51 11 0 20 -7 20 -15 0 -20 18 -19
22 2 5 26 -3 103 -11 103 -4 0 -17 -17 -29 -39z m18 -16 c0 -15 -6 -25 -15
-25 -12 0 -13 4 -3 25 6 14 13 25 15 25 1 0 3 -11 3 -25z"/>
<path d="M8980 2201 c0 -5 12 -9 27 -8 22 2 29 -3 31 -21 4 -27 -22 -40 -45
-21 -14 12 -16 12 -11 -1 7 -21 48 -19 62 3 8 12 8 22 0 35 -12 18 -64 30 -64
13z"/>
<path d="M4530 1946 c0 -8 -3 -21 -6 -30 -4 -11 1 -15 23 -13 22 2 29 -3 31
-21 4 -27 -21 -39 -46 -21 -16 12 -15 11 1 -6 14 -16 21 -17 35 -9 25 16 22
57 -5 69 -13 5 -23 15 -23 22 0 6 10 14 23 16 19 4 18 4 -5 6 -18 1 -28 -4
-28 -13z"/>
<path d="M6105 1940 c-16 -18 -16 -20 -3 -15 14 6 17 -2 21 -42 3 -44 4 -43 5
15 1 34 0 62 -1 62 -2 0 -12 -9 -22 -20z"/>
<path d="M6174 1946 c-10 -27 1 -61 21 -64 19 -4 19 -3 1 10 -22 17 -18 51 7
56 14 3 17 -4 17 -43 0 -48 -23 -72 -41 -44 -6 9 -9 10 -9 2 0 -17 17 -25 39
-18 42 13 33 115 -9 115 -11 0 -23 -6 -26 -14z"/>
<path d="M6267 1954 c-16 -16 -6 -44 18 -50 18 -4 25 -13 25 -30 0 -36 -37
-33 -43 4 -5 26 -5 26 -3 -3 1 -23 6 -31 23 -33 21 -3 49 29 36 42 -3 3 -6 20
-7 38 -1 25 -6 34 -21 36 -12 2 -24 0 -28 -4z m39 -15 c10 -17 -13 -36 -27
-22 -12 12 -4 33 11 33 5 0 12 -5 16 -11z"/>
<path d="M6368 1922 c-34 -51 -34 -52 -4 -52 15 0 26 -7 28 -17 7 -34 14 19 8
66 l-5 45 -27 -42z m22 -17 c0 -18 -5 -25 -20 -25 -20 0 -20 1 -4 25 9 14 18
25 20 25 2 0 4 -11 4 -25z"/>
<path d="M6505 1940 c-16 -18 -16 -20 -3 -15 14 6 17 -2 21 -42 3 -44 4 -43 5
15 1 34 0 62 -1 62 -2 0 -12 -9 -22 -20z"/>
<path d="M6575 1950 c-4 -6 -4 -14 -1 -17 3 -4 6 -1 6 5 0 15 27 15 36 0 4 -6
-1 -17 -11 -25 -17 -12 -17 -13 -2 -13 11 0 17 -8 17 -25 0 -18 -5 -25 -19
-25 -11 0 -22 5 -24 10 -3 6 -4 5 -3 -2 1 -7 12 -14 24 -16 24 -4 48 31 35 51
-4 6 -8 23 -8 37 0 18 -6 26 -22 28 -11 2 -24 -2 -28 -8z"/>
<path d="M7715 1950 c-4 -6 -4 -14 -1 -17 3 -4 6 -1 6 5 0 15 27 15 36 0 4 -6
-1 -17 -11 -25 -17 -12 -17 -13 -2 -13 11 0 17 -8 17 -25 0 -18 -5 -25 -19
-25 -11 0 -22 5 -24 10 -3 6 -4 5 -3 -2 1 -7 12 -14 24 -16 24 -4 48 31 35 51
-4 6 -8 23 -8 37 0 18 -6 26 -22 28 -11 2 -24 -2 -28 -8z"/>
<path d="M7815 1938 c-16 -17 -17 -20 -3 -15 14 5 18 -2 21 -41 3 -42 4 -40 5
16 1 34 1 62 0 61 -2 0 -12 -10 -23 -21z"/>
<path d="M7891 1941 c-24 -45 -3 -107 35 -99 28 5 27 71 -1 76 -18 2 -18 2 -2
-8 21 -14 22 -49 2 -57 -21 -8 -28 1 -31 41 -4 43 18 65 43 45 14 -12 16 -12
11 1 -7 23 -45 24 -57 1z"/>
<path d="M7980 1946 c0 -8 -3 -21 -6 -30 -4 -11 1 -15 23 -13 22 2 29 -3 31
-21 4 -27 -21 -39 -46 -21 -16 12 -15 11 1 -6 14 -16 21 -17 35 -9 25 16 22
57 -5 69 -13 5 -23 15 -23 22 0 6 10 14 23 16 19 4 18 4 -5 6 -18 1 -28 -4
-28 -13z"/>
<path d="M8114 1946 c-10 -27 1 -61 21 -64 19 -4 19 -3 1 10 -22 17 -18 51 7
56 14 3 17 -4 17 -43 0 -48 -23 -72 -41 -44 -6 9 -9 10 -9 2 0 -17 17 -25 39
-18 42 13 33 115 -9 115 -11 0 -23 -6 -26 -14z"/>
<path d="M8207 1953 c-4 -3 -7 -16 -7 -28 0 -16 6 -21 23 -21 28 1 37 -41 11
-51 -10 -4 -19 -2 -22 5 -2 7 -8 12 -14 12 -6 0 -5 -6 2 -15 7 -9 23 -15 34
-13 17 2 21 10 21 38 0 29 -4 36 -22 38 -32 5 -29 30 5 35 l27 4 -26 2 c-14 0
-29 -2 -32 -6z"/>
<path d="M8990 1943 c0 -12 3 -14 8 -7 4 7 16 14 27 17 15 4 14 5 -7 6 -21 1
-28 -4 -28 -16z"/>
<path d="M9095 1940 c-16 -18 -16 -20 -3 -15 14 6 17 -2 21 -42 3 -44 4 -43 5
15 1 34 0 62 -1 62 -2 0 -12 -9 -22 -20z"/>
<path d="M9166 1944 c-12 -31 -7 -41 19 -36 22 4 25 1 25 -22 0 -30 -27 -46
-42 -25 -8 12 -9 11 -5 -1 6 -24 44 -24 57 -1 14 27 -3 61 -31 61 -28 0 -19
23 12 31 l24 7 -26 1 c-16 1 -29 -5 -33 -15z"/>
<path d="M9254 1946 c-3 -7 -4 -33 -2 -57 3 -39 6 -44 28 -44 31 0 47 46 31
88 -11 29 -47 38 -57 13z m41 -47 c0 -32 -4 -44 -15 -44 -16 0 -26 54 -16 82
12 30 31 6 31 -38z"/>
<path d="M9392 1948 c-6 -6 -12 -29 -12 -49 0 -62 52 -80 66 -23 14 54 -23
103 -54 72z m44 -23 c9 -38 -3 -77 -24 -73 -17 3 -29 56 -18 84 9 23 35 16 42
-11z"/>
<path d="M9480 1945 c-10 -12 -10 -18 0 -30 9 -10 9 -15 1 -15 -21 0 -12 -48
10 -55 28 -9 55 17 44 42 -4 10 -8 29 -9 43 -1 29 -27 38 -46 15z m40 -15 c0
-11 -6 -20 -14 -20 -18 0 -29 16 -21 30 11 18 35 11 35 -10z m8 -53 c4 -20
-25 -34 -40 -19 -15 15 -1 44 19 40 10 -2 19 -11 21 -21z"/>
<path d="M8980 1911 c0 -5 12 -9 27 -8 22 2 29 -3 31 -21 4 -27 -22 -40 -45
-21 -14 12 -16 12 -11 -1 7 -21 48 -19 62 3 8 12 8 22 0 35 -12 18 -64 30 -64
13z"/>
</g>
</svg>
